<svg width="26" height="26" viewBox="0 0 26 26" fill="none" xmlns="http://www.w3.org/2000/svg">
<g clip-path="url(#clip0_48_223)">
<path d="M16.5892 11.24C17.7014 12.1833 17.8426 12.3144 18.3321 12.7359C18.6907 12.4284 18.9984 12.1485 20.3026 11.0548C22.6963 9.04485 24.4258 7.59357 24.4258 5.44979C24.4258 3.41752 22.9329 1.82568 21.0271 1.82568C19.7469 1.82568 18.8974 2.548 18.364 3.28366C17.859 2.54576 17.0377 1.82568 15.7538 1.82568C13.8481 1.82568 12.3559 3.41757 12.3559 5.44979C12.3558 7.64791 14.04 9.07684 16.5892 11.24Z" fill="#EB5757"/>
<path d="M4.35705 23.7632C6.35275 22.4074 8.53639 21.8893 10.913 22.2855L14.7215 22.9405C16.1841 23.1844 17.5246 23.1081 18.6824 22.7273C21.0777 21.929 23.4755 19.4149 24.111 18.4616C24.9946 17.1363 25.48 15.689 25.7848 14.9883C26.0742 14.3179 26.0742 13.8457 25.7695 13.5715C25.4191 13.2515 24.825 13.4191 24.3832 13.6629C23.6824 14.059 22.9379 15.2015 22.1762 16.2984C21.186 17.7304 19.4899 18.5835 17.7532 18.5835H12.2383V17.0601H14.5234C18.5757 17.0601 20.3886 16.2984 20.3886 15.5366C20.3886 14.8969 19.1242 14.6073 18.6976 14.516C17.0371 14.1351 13.2894 13.9523 10.7301 12.8097C10.2685 12.6078 9.74529 12.4944 9.19152 12.4898C8.32326 12.4824 7.37964 12.7529 6.47965 13.4495C6.46452 13.4495 6.46452 13.4495 6.44923 13.4648C5.85509 13.9218 5.04259 14.5921 3.94572 15.5519C3.01637 16.3745 2.1176 17.4257 0.548406 18.7663L-3.05176e-05 19.2386L3.74767 24.1746L4.35705 23.7632Z" fill="#EB5757"/>
</g>
<defs>
<clipPath id="clip0_48_223">
<rect width="26" height="26" fill="white"/>
</clipPath>
</defs>
</svg>
