<svg width="234" height="234" viewBox="0 0 234 234" fill="none" xmlns="http://www.w3.org/2000/svg">
<path d="M43.1776 203.819C84.75 226.044 152.161 226.044 193.752 203.819C235.343 181.593 235.329 145.609 193.752 123.402C152.175 101.196 84.7687 101.196 43.1963 123.402C1.62387 145.609 1.60047 181.612 43.1776 203.819Z" fill="#F5F5F5"/>
<path d="M40.6833 163.842L39.4853 163.149C38.9725 162.815 38.5459 162.365 38.2402 161.834C37.9344 161.304 37.7581 160.709 37.7256 160.098V55.0742C37.7581 54.463 37.9344 53.8681 38.2402 53.3379C38.5459 52.8077 38.9725 52.3571 39.4853 52.0229L87.9233 24.0552C88.4694 23.7785 89.073 23.6343 89.6853 23.6343C90.2975 23.6343 90.9012 23.7785 91.4473 24.0552L92.6641 24.7478C93.1768 25.0821 93.6034 25.5327 93.9092 26.0629C94.215 26.5931 94.3913 27.188 94.4238 27.7992V132.823C94.3913 133.434 94.215 134.029 93.9092 134.559C93.6034 135.09 93.1768 135.54 92.6641 135.874L44.2121 163.842C43.6651 164.119 43.0607 164.263 42.4477 164.263C41.8347 164.263 41.2303 164.119 40.6833 163.842Z" fill="#257DFF"/>
<path d="M44.8112 57.1287L38.2592 53.3379C37.9426 53.8634 37.7654 54.461 37.7444 55.0742V160.098C37.7769 160.709 37.9532 161.304 38.259 161.834C38.5647 162.365 38.9913 162.815 39.5041 163.149L40.7021 163.842C41.2491 164.119 41.8535 164.263 42.4665 164.263C43.0795 164.263 43.6839 164.119 44.2309 163.842L44.8299 163.496L44.8112 57.1287Z" fill="#257DFF"/>
<path d="M42.4478 57.8026V162.826C42.4478 163.95 43.2387 164.404 44.2121 163.842L92.6642 135.874C93.1769 135.54 93.6035 135.09 93.9093 134.559C94.215 134.029 94.3913 133.434 94.4238 132.823V27.7991C94.4238 26.6759 93.6376 26.2219 92.6642 26.7835L44.2121 54.7559C43.7004 55.0906 43.2743 55.5405 42.9679 56.0696C42.6615 56.5987 42.4833 57.1922 42.4478 57.8026Z" fill="#257DFF"/>
<path d="M46.3322 64.439L90.3757 39.0126C91.2087 38.5446 91.8873 38.9237 91.8873 39.8877V123.66C91.8585 124.185 91.7067 124.695 91.4441 125.15C91.1815 125.606 90.8155 125.993 90.3757 126.281L46.3322 151.716C45.4945 152.184 44.8206 151.805 44.8206 150.841V67.0692C44.846 66.5423 44.9964 66.0291 45.2592 65.5718C45.522 65.1145 45.8898 64.7262 46.3322 64.439Z" fill="#E0E0E0"/>
<path d="M68.4311 43.4912C69.0816 43.1168 69.6105 43.421 69.6105 44.1744C69.5887 44.5841 69.4705 44.9828 69.2656 45.3382C69.0607 45.6936 68.7747 45.9956 68.4311 46.2196C67.7759 46.5987 67.2471 46.2898 67.2471 45.541C67.2694 45.1303 67.3883 44.7307 67.594 44.3745C67.7997 44.0183 68.0865 43.7157 68.4311 43.4912Z" fill="#632EF1"/>
<path d="M65.0193 49.3928C67.4201 48.0683 71.6977 45.5177 74.0657 44.1278C74.4682 43.8891 74.7911 44.0529 74.7911 44.4928C74.7726 44.7378 74.6969 44.9751 74.5701 45.1856C74.4434 45.3961 74.269 45.574 74.0611 45.7049L65.0006 50.9372C64.5981 51.1712 64.2705 51.0027 64.2705 50.5674C64.2912 50.3257 64.3701 50.0926 64.5005 49.8881C64.6309 49.6835 64.8089 49.5136 65.0193 49.3928Z" fill="#632EF1"/>
<path d="M62.7122 50.7172C63.0772 50.502 63.372 50.6751 63.372 51.0963C63.3604 51.3266 63.2946 51.5509 63.1799 51.751C63.0653 51.951 62.905 52.1212 62.7122 52.2476C62.3471 52.4582 62.0476 52.285 62.0476 51.8638C62.0608 51.634 62.1279 51.4105 62.2433 51.2114C62.3587 51.0122 62.5193 50.8429 62.7122 50.7172Z" fill="#632EF1"/>
<path d="M68.431 141.678C69.7321 140.924 70.771 141.533 70.771 143.039C70.7292 143.857 70.4955 144.653 70.089 145.364C69.6825 146.074 69.1146 146.679 68.431 147.13C67.1253 147.883 66.0676 147.275 66.0676 145.768C66.1121 144.948 66.3493 144.151 66.76 143.44C67.1706 142.729 67.7431 142.125 68.431 141.678Z" fill="#632EF1"/>
<path d="M117.702 158.554C117.414 158.357 117.177 158.096 117.008 157.791C116.84 157.487 116.746 157.147 116.733 156.799V100.929C116.752 100.57 116.856 100.22 117.036 99.9087C117.215 99.5972 117.466 99.3326 117.767 99.1363L189.442 57.7557C189.741 57.5672 190.086 57.4638 190.439 57.4569C190.793 57.45 191.142 57.5398 191.448 57.7165C191.754 57.8933 192.007 58.1503 192.178 58.4599C192.349 58.7695 192.432 59.1199 192.418 59.4733V115.343C192.399 115.702 192.295 116.052 192.116 116.363C191.936 116.675 191.685 116.939 191.384 117.136L119.71 158.521C119.401 158.683 119.058 158.77 118.71 158.776C118.361 158.781 118.016 158.705 117.702 158.554Z" fill="#257DFF"/>
<path d="M192.409 59.3002C192.334 58.7667 191.903 58.5701 191.384 58.8743L119.71 100.255C119.403 100.445 119.152 100.711 118.98 101.027L117.037 99.9086C117.21 99.5922 117.461 99.3261 117.767 99.1364L189.446 57.7511C189.733 57.5705 190.061 57.4682 190.399 57.4545C190.738 57.4407 191.073 57.5161 191.373 57.6729C191.673 57.8298 191.927 58.0626 192.109 58.3482C192.29 58.6338 192.394 58.9621 192.409 59.3002Z" fill="#257DFF"/>
<path d="M119.466 158.624C119.443 158.638 119.418 158.648 119.391 158.652C119.346 158.675 119.297 158.69 119.246 158.699H119.167C119.118 158.713 119.068 158.722 119.017 158.727H118.895C118.717 158.75 118.536 158.75 118.357 158.727C118.129 158.703 117.908 158.635 117.707 158.526C117.418 158.33 117.179 158.07 117.01 157.765C116.84 157.46 116.746 157.119 116.733 156.771V100.924C116.746 100.565 116.851 100.216 117.037 99.9086L118.98 101.027C118.793 101.336 118.688 101.687 118.675 102.047V157.922C118.659 158.057 118.683 158.195 118.744 158.317C118.804 158.439 118.899 158.541 119.017 158.61C119.068 158.635 119.124 158.651 119.181 158.657C119.244 158.666 119.309 158.666 119.373 158.657L119.466 158.624Z" fill="#632EF1"/>
<path d="M124.488 116.612V125.424C124.488 126.084 124.956 126.36 125.522 126.023L137.035 119.373C137.336 119.176 137.586 118.911 137.766 118.6C137.945 118.288 138.049 117.939 138.069 117.58V108.773C138.069 108.113 137.601 107.837 137.035 108.173L125.522 114.824C125.221 115.019 124.97 115.283 124.79 115.593C124.611 115.904 124.507 116.253 124.488 116.612Z" fill="#257DFF"/>
<path d="M139.898 109.589L122.437 119.678L122.671 120.083L140.132 109.994L139.898 109.589Z" fill="#E0E0E0"/>
<path d="M128.611 116.513H128.143V121.006H128.611V116.513Z" fill="#E0E0E0"/>
<path d="M134.433 113.172H133.965V117.655H134.433V113.172Z" fill="#E0E0E0"/>
<path d="M139.899 114.091L122.438 124.18L122.672 124.585L140.133 114.496L139.899 114.091Z" fill="#E0E0E0"/>
<path d="M124.956 109.479C124.904 109.451 124.881 109.376 124.881 109.255V104.364C124.878 104.255 124.904 104.146 124.956 104.05C125.014 103.953 125.098 103.873 125.199 103.821L127.287 102.614C127.806 102.314 128.199 102.225 128.461 102.352C128.723 102.478 128.854 102.787 128.854 103.288C128.851 103.556 128.796 103.822 128.691 104.069C128.59 104.324 128.443 104.557 128.255 104.757C128.723 104.663 128.985 104.935 128.985 105.576C128.981 105.897 128.918 106.214 128.798 106.512C128.665 106.856 128.472 107.173 128.227 107.448C127.959 107.751 127.643 108.009 127.291 108.211L125.204 109.414C125.096 109.512 125.012 109.512 124.956 109.479ZM127.085 105.005C127.267 104.905 127.421 104.76 127.53 104.584C127.634 104.413 127.687 104.217 127.684 104.018C127.684 103.793 127.638 103.662 127.539 103.62C127.441 103.578 127.291 103.62 127.071 103.737L126.042 104.336V105.599L127.085 105.005ZM127.202 107.275C127.39 107.17 127.547 107.016 127.655 106.83C127.764 106.644 127.821 106.433 127.82 106.217C127.82 105.983 127.759 105.838 127.642 105.791C127.556 105.771 127.466 105.77 127.38 105.788C127.293 105.807 127.212 105.845 127.142 105.899L126.056 106.531V107.935L127.202 107.275Z" fill="white"/>
<path d="M128.981 107.106C128.975 107.058 128.975 107.009 128.981 106.961L130.825 100.826C130.849 100.736 130.885 100.649 130.932 100.568C130.978 100.503 131.039 100.449 131.11 100.414L131.63 100.114C131.705 100.072 131.761 100.054 131.798 100.068C131.849 100.097 131.887 100.143 131.906 100.199L133.75 104.209C133.757 104.248 133.757 104.288 133.75 104.326C133.751 104.37 133.739 104.414 133.717 104.452C133.695 104.49 133.662 104.521 133.623 104.542L132.762 105.038C132.721 105.069 132.669 105.086 132.617 105.085C132.584 105.085 132.561 105.047 132.533 104.996L132.21 104.214L130.478 105.216L130.156 106.367C130.14 106.433 130.113 106.497 130.076 106.554C130.036 106.602 129.987 106.642 129.931 106.671L129.112 107.172C129.023 107.219 128.981 107.2 128.981 107.106ZM131.976 103.428L131.382 101.991L130.787 104.111L131.976 103.428Z" fill="white"/>
<path d="M134.461 103.994C134.409 103.966 134.386 103.891 134.386 103.774V98.8884C134.383 98.7805 134.408 98.6738 134.461 98.5795C134.521 98.4791 134.609 98.398 134.714 98.3455L135.154 98.0928C135.208 98.0551 135.271 98.031 135.336 98.0226C135.387 98.0297 135.433 98.0546 135.467 98.0928L137.461 100.189V97.124C137.457 97.0132 137.483 96.9034 137.536 96.8058C137.595 96.7092 137.679 96.63 137.779 96.5765L138.313 96.2676C138.434 96.1974 138.514 96.1787 138.565 96.2114C138.617 96.2442 138.636 96.3191 138.636 96.4454V101.317C138.639 101.425 138.615 101.531 138.565 101.626C138.503 101.724 138.416 101.803 138.313 101.856L137.845 102.118C137.792 102.153 137.73 102.174 137.667 102.178C137.617 102.173 137.57 102.149 137.536 102.113L135.537 100.026V103.096C135.54 103.201 135.516 103.306 135.467 103.4C135.405 103.499 135.318 103.58 135.214 103.634L134.681 103.938C134.592 104.008 134.508 104.022 134.461 103.994Z" fill="white"/>
<path d="M143.367 98.7994C143.368 98.8435 143.357 98.8869 143.334 98.9249C143.312 98.9629 143.28 98.994 143.241 99.0147L142.352 99.5248C142.311 99.5501 142.267 99.569 142.22 99.581C142.189 99.5851 142.157 99.5767 142.132 99.5576L140.559 98.0787V100.241C140.562 100.348 140.538 100.454 140.489 100.55C140.426 100.646 140.339 100.725 140.236 100.779L139.703 101.088C139.59 101.153 139.511 101.172 139.459 101.144C139.408 101.116 139.384 101.036 139.384 100.919V96.0242C139.381 95.9148 139.407 95.8065 139.459 95.7106C139.518 95.6125 139.602 95.5318 139.703 95.4766L140.236 95.1677C140.358 95.1022 140.437 95.0835 140.489 95.1116C140.54 95.1396 140.559 95.2192 140.559 95.3456V97.4656V97.4235L142.08 94.199C142.102 94.1489 142.132 94.103 142.169 94.0632C142.214 94.0226 142.262 93.9865 142.314 93.9556L143.189 93.4502C143.278 93.4034 143.32 93.4268 143.32 93.5204C143.317 93.5742 143.303 93.6269 143.278 93.6748L141.589 97.1567L143.325 98.6918C143.34 98.7051 143.352 98.7218 143.359 98.7405C143.366 98.7592 143.369 98.7794 143.367 98.7994Z" fill="white"/>
<path d="M147.069 96.174C146.601 95.9353 146.386 95.3456 146.386 94.4003C146.374 93.5044 146.604 92.6219 147.05 91.845C147.513 91.0746 148.17 90.4389 148.955 90.0011C149.249 89.8228 149.563 89.6799 149.891 89.5752C150.121 89.4954 150.366 89.4713 150.607 89.505C150.618 89.5062 150.628 89.5094 150.637 89.5145C150.646 89.5196 150.654 89.5265 150.661 89.5348C150.667 89.5431 150.672 89.5525 150.675 89.5627C150.678 89.5728 150.679 89.5835 150.677 89.5939C150.673 89.6506 150.659 89.7061 150.635 89.7577L150.382 90.4036C150.365 90.4608 150.331 90.5114 150.284 90.5486C150.247 90.5682 150.204 90.5763 150.162 90.572C149.781 90.5711 149.408 90.6835 149.091 90.895C148.613 91.1661 148.218 91.5626 147.949 92.0416C147.673 92.5594 147.534 93.1396 147.546 93.7264C147.546 94.3722 147.687 94.7794 147.968 94.9385C148.159 95.0113 148.367 95.0327 148.57 95.0007C148.772 94.9687 148.963 94.8843 149.123 94.756C149.554 94.5164 149.937 94.199 150.251 93.82C150.286 93.7735 150.327 93.7325 150.373 93.6983C150.406 93.6983 150.439 93.6983 150.471 93.731L150.747 94.1242C150.764 94.1474 150.774 94.1751 150.776 94.2037C150.762 94.2676 150.733 94.3271 150.691 94.3769C150.229 94.978 149.644 95.4728 148.974 95.8277C148.159 96.2957 147.518 96.408 147.069 96.174Z" fill="white"/>
<path d="M151.042 94.3673C151.039 94.3206 151.039 94.2736 151.042 94.2269L152.914 88.0867C152.935 87.9952 152.971 87.908 153.022 87.8293C153.069 87.7678 153.128 87.7168 153.195 87.6796L153.715 87.3754C153.765 87.3391 153.827 87.3239 153.888 87.3333C153.939 87.3612 153.978 87.4082 153.995 87.4643L155.839 91.4704C155.846 91.5107 155.846 91.5518 155.839 91.5921C155.841 91.6356 155.83 91.6788 155.807 91.7162C155.785 91.7536 155.752 91.7836 155.713 91.8027L154.852 92.3034C154.809 92.3331 154.759 92.3493 154.707 92.3502C154.687 92.3424 154.669 92.3304 154.655 92.3151C154.64 92.2997 154.629 92.2814 154.623 92.2613L154.295 91.4797L152.568 92.4766L152.25 93.6325C152.232 93.697 152.206 93.7585 152.17 93.8151C152.129 93.8656 152.078 93.907 152.02 93.9367L151.164 94.4328C151.084 94.4843 151.042 94.4609 151.042 94.3673ZM154.038 90.6888L153.448 89.2567L152.849 91.3768L154.038 90.6888Z" fill="white"/>
<path d="M156.518 91.2598C156.471 91.2317 156.443 91.1569 156.443 91.0352V86.1586C156.442 86.0496 156.468 85.942 156.518 85.8451C156.579 85.7484 156.665 85.6694 156.766 85.6157L158.568 84.5768C159.769 83.8779 160.371 84.1369 160.374 85.3537C160.377 85.7356 160.304 86.1142 160.159 86.4675C160.012 86.8331 159.797 87.1681 159.527 87.455L160.276 88.9151C160.283 88.9491 160.283 88.9842 160.276 89.0181C160.276 89.0674 160.262 89.1156 160.235 89.157C160.209 89.1985 160.171 89.2315 160.126 89.2521L159.34 89.7201C159.296 89.7522 159.244 89.7731 159.19 89.7809C159.153 89.7809 159.125 89.7529 159.101 89.7014L158.446 88.2974L157.599 88.7654V90.3753C157.606 90.4867 157.58 90.5977 157.523 90.6938C157.466 90.7899 157.382 90.8665 157.281 90.9135L156.747 91.2224C156.653 91.2598 156.569 91.2879 156.518 91.2598ZM158.39 87.3193C158.634 87.1889 158.843 87.001 158.998 86.7717C159.138 86.5506 159.209 86.2936 159.204 86.0323C159.204 85.7468 159.139 85.5643 159.017 85.5128C158.895 85.4613 158.708 85.5128 158.46 85.6345L157.618 86.1118V87.7545L158.39 87.3193Z" fill="white"/>
<path d="M161.034 88.6532C160.982 88.6251 160.959 88.5502 160.959 88.4286V83.5567C160.955 83.4473 160.981 83.339 161.034 83.2431C161.092 83.144 161.176 83.063 161.277 83.0091L162.775 82.148C163.586 81.6769 164.202 81.5443 164.624 81.7502C165.045 81.9561 165.255 82.5411 165.255 83.5052C165.279 84.3767 165.058 85.2374 164.619 85.9903C164.161 86.7183 163.527 87.3188 162.775 87.7359L161.277 88.597C161.165 88.6626 161.081 88.6813 161.034 88.6532ZM162.831 86.7063C163.225 86.4884 163.549 86.164 163.767 85.7703C163.998 85.2779 164.106 84.7365 164.081 84.1932C164.081 83.538 163.978 83.1355 163.767 82.9857C163.556 82.836 163.243 82.8874 162.831 83.1308L162.134 83.5333V87.1228L162.831 86.7063Z" fill="white"/>
<path d="M124.488 133.422V135.514C124.488 136.174 124.956 136.45 125.522 136.113L137.035 129.463C137.334 129.265 137.582 129 137.76 128.688C137.938 128.377 138.041 128.028 138.06 127.67V125.578C138.06 124.918 137.592 124.642 137.026 124.979L125.513 131.63C125.213 131.827 124.964 132.092 124.786 132.403C124.608 132.715 124.506 133.064 124.488 133.422Z" fill="#E0E0E0"/>
<path d="M140.667 124.085V126.177C140.667 126.837 141.135 127.113 141.701 126.772L153.219 120.126C153.519 119.929 153.77 119.665 153.949 119.353C154.129 119.042 154.233 118.693 154.253 118.334V116.242C154.253 115.582 153.785 115.306 153.219 115.643L141.701 122.293C141.4 122.489 141.149 122.754 140.969 123.065C140.789 123.377 140.686 123.726 140.667 124.085Z" fill="#E0E0E0"/>
<path d="M156.841 114.744V116.836C156.841 117.496 157.309 117.772 157.875 117.435L169.388 110.785C169.689 110.59 169.94 110.326 170.12 110.015C170.299 109.704 170.403 109.356 170.422 108.997V106.901C170.422 106.241 169.954 105.965 169.388 106.306L157.875 112.952C157.574 113.149 157.324 113.413 157.144 113.725C156.965 114.036 156.861 114.385 156.841 114.744Z" fill="#E0E0E0"/>
<path d="M173.01 105.408V107.5C173.01 108.159 173.478 108.436 174.045 108.099L185.562 101.448C185.863 101.252 186.114 100.987 186.294 100.676C186.474 100.364 186.577 100.015 186.596 99.6559V97.5639C186.596 96.904 186.128 96.6279 185.562 96.9649L174.045 103.615C173.744 103.812 173.493 104.077 173.314 104.388C173.134 104.699 173.03 105.049 173.01 105.408Z" fill="#EBEBEB"/>
<path d="M180.152 107.935L177.512 109.461C177.332 109.578 177.183 109.736 177.075 109.922C176.968 110.109 176.906 110.318 176.895 110.532V111.342C176.895 111.735 177.171 111.899 177.512 111.698L180.152 110.177C180.333 110.059 180.484 109.9 180.593 109.713C180.701 109.526 180.763 109.316 180.774 109.1V108.291C180.774 107.897 180.498 107.738 180.152 107.935Z" fill="#257DFF"/>
<path d="M185.974 104.575L183.334 106.096C183.154 106.214 183.004 106.373 182.897 106.56C182.79 106.747 182.728 106.957 182.717 107.172V107.982C182.717 108.375 182.993 108.534 183.334 108.337L185.974 106.812C186.155 106.695 186.306 106.537 186.414 106.351C186.522 106.164 186.585 105.955 186.596 105.74V104.93C186.596 104.537 186.32 104.364 185.974 104.575Z" fill="#257DFF"/>
<path d="M152.648 129.416L185.511 110.448C186.081 110.116 186.545 110.387 186.545 111.047V112.016C186.526 112.375 186.422 112.724 186.242 113.036C186.063 113.347 185.812 113.612 185.511 113.808L152.648 132.781C152.077 133.113 151.613 132.846 151.613 132.187V131.213C151.632 130.853 151.736 130.503 151.916 130.191C152.095 129.879 152.346 129.613 152.648 129.416Z" fill="#257DFF"/>
<path d="M82.981 51.48V99.5997C83.0003 99.951 83.1018 100.293 83.2774 100.598C83.453 100.902 83.6977 101.162 83.9918 101.355L85.7702 102.38C86.0843 102.539 86.4314 102.622 86.7835 102.622C87.1355 102.622 87.4826 102.539 87.7967 102.38L118.086 84.8952C118.381 84.7027 118.626 84.4436 118.803 84.1388C118.979 83.8339 119.081 83.4918 119.101 83.1402V35.0298C119.082 34.6779 118.98 34.3356 118.804 34.0306C118.627 33.7256 118.381 33.4667 118.086 33.2748L116.312 32.2499C115.998 32.0907 115.651 32.0078 115.299 32.0078C114.947 32.0078 114.6 32.0907 114.285 32.2499L83.9918 49.739C83.6995 49.9306 83.4559 50.1877 83.2805 50.4899C83.105 50.7922 83.0024 51.1312 82.981 51.48Z" fill="#EBEBEB"/>
<path d="M119.092 34.866C119.022 34.3418 118.596 34.1499 118.086 34.4448L87.7968 51.948C87.4961 52.1354 87.248 52.3963 87.076 52.7061L83.2759 50.5112C83.4488 50.2036 83.6947 49.9433 83.9919 49.7531L114.286 32.2499C114.6 32.0907 114.947 32.0078 115.299 32.0078C115.651 32.0078 115.998 32.0907 116.312 32.2499L118.086 33.2748C118.358 33.4521 118.589 33.6861 118.762 33.9606C118.936 34.2352 119.048 34.544 119.092 34.866Z" fill="#F5F5F5"/>
<path d="M87.6187 102.459C87.5986 102.463 87.578 102.463 87.5579 102.459C87.5192 102.478 87.4783 102.492 87.4362 102.501L87.2303 102.553C86.8216 102.629 86.4 102.595 86.0088 102.455C85.9314 102.426 85.8563 102.391 85.7842 102.352L84.0058 101.327C83.7116 101.134 83.4669 100.874 83.2913 100.57C83.1157 100.265 83.0142 99.9229 82.9949 99.5717V51.48C83.0069 51.1281 83.1084 50.785 83.2897 50.4832L87.0899 52.6781C86.9085 52.9799 86.8071 53.323 86.795 53.6749V101.795C86.7847 101.985 86.8392 102.173 86.9495 102.328C87.014 102.406 87.0994 102.463 87.1956 102.494C87.2918 102.525 87.3948 102.527 87.4924 102.501L87.6187 102.459Z" fill="#E0E0E0"/>
<path d="M107.509 70.5837C108.833 71.4683 110.532 71.5198 112.254 71.1968" stroke="#257DFF" stroke-width="1.25" stroke-miterlimit="10" stroke-linecap="round"/>
<path d="M103.17 61.3079C104.574 60.9007 105.421 61.5934 105.571 63.5777C105.754 66.0207 105.698 68.3186 106.952 69.7272" stroke="#257DFF" stroke-width="1.25" stroke-miterlimit="10" stroke-linecap="round"/>
<path d="M100.863 74.4119C99.8054 71.8285 99.2625 63.8538 102.267 61.7759" stroke="#257DFF" stroke-width="1.25" stroke-miterlimit="10" stroke-linecap="round"/>
<path d="M109.928 79.3261C106.479 79.7332 103.227 78.6989 101.387 75.4697" stroke="#257DFF" stroke-width="1.25" stroke-miterlimit="10" stroke-linecap="round"/>
<path d="M110.612 77.44C105.061 78.0437 101.107 75.2216 101.757 65.768C101.823 64.8788 102.314 63.8586 102.974 63.4749H102.997C103.671 63.1051 104.354 63.5404 104.34 64.4389C104.242 71.2015 106.432 74.3418 111.978 73.359" stroke="#257DFF" stroke-width="1.25" stroke-miterlimit="10" stroke-linecap="round"/>
<path d="M108.637 81.5819C101.696 82.0499 97.9803 77.4401 98.5279 67.7197C98.7104 64.5092 99.9319 60.9524 102.337 59.5625C102.37 59.5395 102.404 59.5191 102.44 59.5016C104.883 58.1585 106.788 59.5672 107.041 62.8619C107.284 66.0256 107.373 69.7602 112.601 68.8757" stroke="#257DFF" stroke-width="1.25" stroke-miterlimit="10" stroke-linecap="round"/>
<path d="M103.896 83.3413C104.948 83.7177 106.055 83.9185 107.172 83.9357" stroke="#257DFF" stroke-width="1.25" stroke-miterlimit="10" stroke-linecap="round"/>
<path d="M98.5278 79.092C99.4238 80.8509 100.917 82.233 102.74 82.9905" stroke="#257DFF" stroke-width="1.25" stroke-miterlimit="10" stroke-linecap="round"/>
<path d="M98.9444 61.1816C95.9492 66.7087 96.7121 74.1218 97.9523 77.6974" stroke="#257DFF" stroke-width="1.25" stroke-miterlimit="10" stroke-linecap="round"/>
<path d="M108.576 62.4873C108.295 59.4874 107.532 57.4376 105.356 56.9555C103.62 56.5764 101.397 57.6763 99.6323 60.1005" stroke="#257DFF" stroke-width="1.25" stroke-miterlimit="10" stroke-linecap="round"/>
<path d="M112.821 66.7975C111.033 67.4246 109.133 67.0362 108.801 64.3218" stroke="#257DFF" stroke-width="1.25" stroke-miterlimit="10" stroke-linecap="round"/>
<path d="M112.947 64.7336C111.075 64.7851 110.209 63.952 109.755 60.5965C109.058 55.4485 106.395 53.2442 102.267 55.631C97.9336 58.1301 95.3316 64.3218 95.135 69.4417C94.7559 79.0778 97.7792 82.9107 102.529 84.8529C103.59 85.2761 104.7 85.5608 105.833 85.7" stroke="#257DFF" stroke-width="1.25" stroke-miterlimit="10" stroke-linecap="round"/>
<path d="M110.598 57.6951C110.967 59.7215 111.164 62.5482 112.998 62.4874" stroke="#257DFF" stroke-width="1.25" stroke-miterlimit="10" stroke-linecap="round"/>
<path d="M106.545 52.5471C108.318 52.8794 109.648 54.3536 110.321 56.5251" stroke="#257DFF" stroke-width="1.25" stroke-miterlimit="10" stroke-linecap="round"/>
<path d="M99.6418 55.5515C101.514 53.614 103.718 52.561 105.571 52.4814" stroke="#257DFF" stroke-width="1.25" stroke-miterlimit="10" stroke-linecap="round"/>
<path d="M94.2551 64.7851C95.0501 61.7492 96.5095 58.9279 98.528 56.5249" stroke="#257DFF" stroke-width="1.25" stroke-miterlimit="10" stroke-linecap="round"/>
<path d="M93.5625 74.412C93.2374 71.6635 93.3305 68.8817 93.8386 66.1611" stroke="#257DFF" stroke-width="1.25" stroke-miterlimit="10" stroke-linecap="round"/>
<path d="M95.9399 82.3213C94.8519 80.3744 94.1137 78.2519 93.759 76.05" stroke="#257DFF" stroke-width="1.25" stroke-miterlimit="10" stroke-linecap="round"/>
<path d="M103.068 87.7641C100.868 86.8655 98.4156 85.5551 96.8572 83.4585" stroke="#257DFF" stroke-width="1.25" stroke-miterlimit="10" stroke-linecap="round"/>
<path d="M100.62 89.1681C94.0259 86.4724 91.728 79.3635 91.728 71.4543C91.728 63.5451 95.472 55.0275 102.253 51.3069C106.854 48.789 112.989 51.5175 112.989 59.4267" stroke="#257DFF" stroke-width="1.25" stroke-miterlimit="10" stroke-linecap="round"/>
<path d="M109.044 75.5072C109.872 75.5485 110.702 75.5156 111.524 75.4089" stroke="#257DFF" stroke-width="1.25" stroke-miterlimit="10" stroke-linecap="round"/>
<path d="M104.514 73.0081C104.848 73.6359 105.321 74.1793 105.897 74.5969C106.472 75.0145 107.136 75.2954 107.836 75.4183" stroke="#257DFF" stroke-width="1.25" stroke-miterlimit="10" stroke-linecap="round"/>
<path d="M103.114 65.0051C102.89 67.7195 103.231 70.214 104.004 71.9877" stroke="#257DFF" stroke-width="1.25" stroke-miterlimit="10" stroke-linecap="round"/>
<path d="M105.155 47.8764C107.031 47.495 108.982 47.8556 110.598 48.8826" stroke="#257DFF" stroke-width="1.25" stroke-miterlimit="10" stroke-linecap="round"/>
<path d="M96.876 52.884C98.7344 50.8522 101.042 49.2831 103.615 48.3022" stroke="#257DFF" stroke-width="1.25" stroke-miterlimit="10" stroke-linecap="round"/>
<path d="M94.5686 87.9092C95.2483 88.7563 96.1022 89.4474 97.0724 89.9356" stroke="#257DFF" stroke-width="1.25" stroke-miterlimit="10" stroke-linecap="round"/>
<path d="M91.4844 82.6956C92.008 84.1472 92.7652 85.5035 93.7261 86.711" stroke="#257DFF" stroke-width="1.25" stroke-miterlimit="10" stroke-linecap="round"/>
<path d="M17.9897 110.186C18.0068 109.875 18.0965 109.571 18.2517 109.301C18.4069 109.03 18.6233 108.8 18.8836 108.628L64.8178 82.1107C65.0965 81.97 65.4042 81.8967 65.7164 81.8967C66.0285 81.8967 66.3363 81.97 66.6149 82.1107L67.6258 82.6957C67.8872 82.8659 68.1047 83.0952 68.2608 83.3652C68.4169 83.6351 68.5072 83.9381 68.5244 84.2495V119.457C68.5072 119.769 68.417 120.073 68.2609 120.343C68.1048 120.614 67.8873 120.844 67.6258 121.016L21.6916 147.532C21.4138 147.673 21.1068 147.746 20.7954 147.746C20.484 147.746 20.177 147.673 19.8992 147.532L18.8883 146.952C18.627 146.782 18.4094 146.553 18.2533 146.283C18.0972 146.013 18.0069 145.71 17.9897 145.398V110.186Z" fill="#257DFF"/>
<path opacity="0.4" d="M18.252 109.301L20.7979 110.771L68.2624 83.3649C68.1095 83.0922 67.8907 82.8621 67.626 82.6956L66.6104 82.1106C66.3326 81.97 66.0256 81.8967 65.7142 81.8967C65.4028 81.8967 65.0958 81.97 64.818 82.1106L18.8884 108.628C18.6213 108.793 18.4019 109.025 18.252 109.301Z" fill="white"/>
<path opacity="0.1" d="M17.9851 110.186V145.394C18.0024 145.706 18.0933 146.01 18.2502 146.281C18.4071 146.552 18.6258 146.782 18.8883 146.952L19.8992 147.537C19.9772 147.581 20.0586 147.619 20.1426 147.649C20.4917 147.763 20.8647 147.783 21.2237 147.706C21.2826 147.695 21.3406 147.679 21.3968 147.659C21.4344 147.65 21.4706 147.635 21.5045 147.617C21.4365 147.646 21.3632 147.661 21.2892 147.661C21.2151 147.661 21.1419 147.646 21.0739 147.617C20.9779 147.552 20.9014 147.463 20.8528 147.358C20.8041 147.253 20.7851 147.137 20.7978 147.022V111.805C20.7883 111.646 20.8281 111.487 20.9118 111.35C20.9955 111.214 21.1191 111.106 21.2658 111.042L20.7978 110.771L18.2519 109.302C18.0886 109.569 17.9967 109.873 17.9851 110.186Z" fill="black"/>
<path opacity="0.2" d="M20.7977 110.771L42.0683 118.727C42.8042 119.002 43.6119 119.018 44.3581 118.772C45.1043 118.526 45.7443 118.033 46.1726 117.374L49.6078 112.133L68.4494 83.2666L50.2723 112.32L68.5243 119.466C68.5068 119.783 68.4103 120.09 68.2435 120.36L50.2208 112.404L46.2475 118.755C45.8072 119.46 45.1275 119.982 44.3333 120.226C43.539 120.47 42.6833 120.42 41.9232 120.084L39.1152 118.835L21.0597 147.607C20.9638 147.543 20.8873 147.453 20.8386 147.349C20.7899 147.244 20.7709 147.128 20.7836 147.013V146.428L38.9935 118.816L20.7977 110.771Z" fill="black"/>
<path d="M183.091 13.1041C183.103 12.9826 183.084 12.86 183.036 12.7479C182.987 12.6357 182.911 12.5377 182.815 12.4629H182.791L180.919 11.3725C180.805 11.3194 180.679 11.2979 180.554 11.3103C180.429 11.3226 180.31 11.3684 180.208 11.4427L151.164 28.1363L150.382 25.5295C150.32 25.2947 150.169 25.0934 149.961 24.9679L148.071 23.8681C147.928 23.7851 147.764 23.7433 147.599 23.7474C147.434 23.7516 147.273 23.8014 147.135 23.8915L134.676 31.0893C134.382 31.2823 134.137 31.5416 133.962 31.8465C133.786 32.1513 133.685 32.4931 133.665 32.8443V74.4121C133.655 74.5335 133.674 74.6556 133.723 74.7676C133.771 74.8795 133.846 74.9777 133.942 75.0533H133.965L135.837 76.1437H135.86C135.974 76.1882 136.096 76.2038 136.217 76.189C136.338 76.1743 136.454 76.1298 136.553 76.0595L182.052 49.7906C182.346 49.5977 182.591 49.3383 182.766 49.0335C182.942 48.7287 183.044 48.3869 183.063 48.0356L183.091 13.1041Z" fill="#257DFF"/>
<path opacity="0.4" d="M149.947 24.9538C149.806 24.8804 149.647 24.8457 149.488 24.8531C149.328 24.8605 149.174 24.9098 149.039 24.9959L136.577 32.1891C136.279 32.3793 136.033 32.6397 135.861 32.9473L133.96 31.8475C134.129 31.5369 134.376 31.2756 134.676 31.0893L147.139 23.8961C147.278 23.8071 147.439 23.7578 147.604 23.7537C147.769 23.7496 147.932 23.7907 148.075 23.8727L149.947 24.9538Z" fill="white"/>
<path opacity="0.4" d="M182.74 12.4068C182.629 12.371 182.511 12.3613 182.396 12.3783C182.281 12.3954 182.171 12.4388 182.075 12.5051L152.751 29.4233C152.631 29.5027 152.495 29.552 152.352 29.5669C152.21 29.5818 152.066 29.562 151.933 29.509C151.8 29.4561 151.682 29.3717 151.589 29.263C151.495 29.1543 151.43 29.0246 151.398 28.8851L151.173 28.1363L180.189 11.4053C180.33 11.3178 180.492 11.2708 180.657 11.2696C180.749 11.2684 180.839 11.2909 180.919 11.3351L182.74 12.4068Z" fill="white"/>
<path opacity="0.1" d="M135.72 76.0175C135.748 76.0577 135.781 76.0939 135.818 76.1251L133.979 75.0675C133.906 75.0169 133.847 74.9495 133.806 74.8709C133.785 74.834 133.77 74.7947 133.759 74.7539C133.723 74.6484 133.706 74.5376 133.708 74.4263V32.8445C133.705 32.804 133.705 32.7633 133.708 32.7228C133.717 32.6379 133.731 32.5535 133.75 32.4701C133.75 32.428 133.773 32.3859 133.782 32.3437C133.825 32.2155 133.877 32.0903 133.937 31.9693C133.956 31.9273 133.978 31.8867 134.002 31.8477L135.902 32.9475C135.721 33.2491 135.619 33.5923 135.608 33.9443V75.5074C135.603 75.5666 135.603 75.626 135.608 75.6852C135.605 75.7179 135.605 75.7508 135.608 75.7835V75.835L135.636 75.9005C135.657 75.9441 135.685 75.9837 135.72 76.0175Z" fill="black"/>
<path d="M105.15 144.022C105.126 143.587 105 143.164 104.782 142.787C104.564 142.41 104.261 142.089 103.896 141.851L102.876 141.261C102.486 141.067 102.057 140.965 101.621 140.965C101.186 140.965 100.757 141.067 100.367 141.261L66.4793 160.814C66.1145 161.052 65.8109 161.373 65.593 161.75C65.3751 162.127 65.249 162.551 65.2251 162.986V166.978C65.249 167.413 65.3751 167.836 65.593 168.213C65.8109 168.59 66.1145 168.911 66.4793 169.149L67.5043 169.739C67.8924 169.935 68.3212 170.037 68.7562 170.037C69.1911 170.037 69.6199 169.935 70.0081 169.739L103.896 150.186C104.261 149.948 104.565 149.628 104.783 149.25C105.001 148.873 105.127 148.45 105.15 148.014V144.022Z" fill="#37474F"/>
<path d="M65.2251 166.978C65.2483 167.413 65.374 167.836 65.592 168.214C65.8099 168.591 66.114 168.912 66.4793 169.149L67.5043 169.739C67.858 169.916 68.2452 170.016 68.6404 170.033C69.0355 170.05 69.4299 169.983 69.7975 169.837C69.2031 170.062 68.7538 169.73 68.7538 169.014V165.026C68.7684 164.588 68.8957 164.161 69.1235 163.786L65.5948 161.75C65.3676 162.123 65.2403 162.549 65.2251 162.986V166.978Z" fill="#E0E0E0"/>
<path d="M105.108 143.676C104.963 143.143 104.476 142.974 103.896 143.306L70.0082 162.864C69.6361 163.093 69.3309 163.416 69.1236 163.8L65.5996 161.764C65.8065 161.381 66.1098 161.058 66.4795 160.828L100.363 141.271C100.752 141.076 101.182 140.975 101.617 140.975C102.052 140.975 102.482 141.076 102.871 141.271L103.896 141.865C104.21 142.069 104.48 142.334 104.688 142.646C104.897 142.957 105.04 143.308 105.108 143.676Z" fill="#E0E0E0"/>
<path d="M73.0689 163.332C73.7287 162.953 74.2622 163.262 74.2622 164.02C74.2399 164.434 74.1202 164.836 73.9128 165.195C73.7054 165.554 73.4163 165.858 73.0689 166.084C72.4137 166.463 71.8801 166.154 71.8801 165.396C71.9027 164.983 72.022 164.581 72.2285 164.222C72.435 163.864 72.7228 163.559 73.0689 163.332Z" fill="#E6E6E6"/>
<path d="M77.0093 161.072C77.6645 160.693 78.198 161.001 78.198 161.76C78.1758 162.173 78.0567 162.575 77.8501 162.933C77.6436 163.292 77.3556 163.597 77.0093 163.823C76.3494 164.203 75.8206 163.894 75.8206 163.135C75.8427 162.722 75.9619 162.32 76.1684 161.962C76.3749 161.603 76.663 161.298 77.0093 161.072Z" fill="#E6E6E6"/>
<path d="M80.9641 158.802C81.624 158.423 82.1575 158.727 82.1575 159.49C82.1348 159.903 82.0149 160.305 81.8075 160.662C81.6002 161.02 81.3112 161.324 80.9641 161.549C80.3089 161.928 79.7754 161.619 79.7754 160.861C79.7979 160.449 79.9173 160.047 80.1238 159.689C80.3303 159.332 80.6182 159.028 80.9641 158.802Z" fill="#E6E6E6"/>
<path d="M84.8858 156.527C85.541 156.148 86.0745 156.457 86.0745 157.215C86.052 157.628 85.9326 158.029 85.7261 158.387C85.5196 158.745 85.2317 159.049 84.8858 159.274C84.2259 159.654 83.6924 159.349 83.6924 158.586C83.715 158.174 83.835 157.772 84.0423 157.414C84.2497 157.056 84.5387 156.752 84.8858 156.527Z" fill="#E6E6E6"/>
<path d="M88.8218 154.253C89.4817 153.874 90.0152 154.183 90.0152 154.941C89.9921 155.354 89.8721 155.757 89.6648 156.115C89.4574 156.474 89.1687 156.778 88.8218 157.005C88.1666 157.384 87.6331 157.075 87.6331 156.317C87.6552 155.904 87.7744 155.501 87.9809 155.143C88.1874 154.784 88.4755 154.479 88.8218 154.253Z" fill="#E6E6E6"/>
<path d="M92.7622 151.978C93.4174 151.599 93.951 151.908 93.951 152.666C93.9284 153.079 93.8091 153.481 93.6026 153.84C93.3961 154.198 93.1083 154.503 92.7622 154.73C92.1024 155.109 91.5688 154.8 91.5688 154.042C91.5912 153.629 91.7109 153.226 91.9183 152.867C92.1257 152.509 92.4148 152.204 92.7622 151.978Z" fill="#E6E6E6"/>
<path d="M96.6982 149.704C97.3534 149.325 97.887 149.634 97.887 150.392C97.8648 150.805 97.7456 151.207 97.5391 151.566C97.3326 151.924 97.0445 152.229 96.6982 152.456C96.043 152.835 95.5095 152.526 95.5095 151.768C95.5328 151.355 95.6524 150.953 95.8588 150.595C96.0653 150.236 96.3527 149.931 96.6982 149.704Z" fill="#E6E6E6"/>
<path d="M100.62 147.42C101.28 147.041 101.813 147.345 101.813 148.108C101.791 148.521 101.671 148.923 101.463 149.281C101.256 149.638 100.967 149.942 100.62 150.167C99.9647 150.546 99.4312 150.237 99.4312 149.479C99.4537 149.067 99.573 148.665 99.7795 148.308C99.9861 147.95 100.274 147.646 100.62 147.42Z" fill="#E6E6E6"/>
<path d="M105.15 157.187C105.126 156.752 105 156.329 104.782 155.952C104.564 155.574 104.261 155.254 103.896 155.016L102.876 154.44C102.486 154.246 102.057 154.144 101.621 154.144C101.186 154.144 100.757 154.246 100.367 154.44L66.4793 173.993C66.114 174.231 65.8099 174.551 65.592 174.928C65.374 175.306 65.2483 175.729 65.2251 176.165V180.157C65.249 180.592 65.3751 181.015 65.593 181.392C65.8109 181.769 66.1145 182.09 66.4793 182.328L67.5043 182.918C67.8924 183.114 68.3212 183.216 68.7562 183.216C69.1911 183.216 69.6199 183.114 70.0081 182.918L103.896 163.332C104.261 163.094 104.565 162.774 104.783 162.397C105.001 162.019 105.127 161.596 105.15 161.16V157.187Z" fill="#37474F"/>
<path d="M65.2251 180.143C65.249 180.578 65.3751 181.001 65.593 181.378C65.8109 181.755 66.1145 182.076 66.4793 182.314L67.5043 182.904C67.858 183.081 68.2452 183.181 68.6404 183.198C69.0355 183.215 69.4299 183.148 69.7975 183.002C69.2031 183.227 68.7538 182.894 68.7538 182.178V178.186C68.769 177.75 68.8963 177.324 69.1235 176.951L65.5948 174.915C65.3676 175.288 65.2403 175.714 65.2251 176.151V180.143Z" fill="#E0E0E0"/>
<path d="M105.108 156.831C104.963 156.298 104.476 156.129 103.896 156.462L70.0082 176.019C69.6361 176.248 69.3309 176.571 69.1236 176.955L65.5996 174.92C65.8065 174.536 66.1098 174.214 66.4795 173.984L100.363 154.44C100.752 154.246 101.182 154.144 101.617 154.144C102.052 154.144 102.482 154.246 102.871 154.44L103.896 155.034C104.209 155.237 104.478 155.5 104.686 155.809C104.894 156.118 105.038 156.466 105.108 156.831Z" fill="#E0E0E0"/>
<path d="M73.0689 176.511C73.7287 176.132 74.2622 176.441 74.2622 177.199C74.2392 177.612 74.1192 178.015 73.9118 178.373C73.7045 178.732 73.4157 179.036 73.0689 179.263C72.4137 179.642 71.8801 179.333 71.8801 178.575C71.9023 178.162 72.0215 177.759 72.228 177.401C72.4345 177.042 72.7226 176.737 73.0689 176.511Z" fill="#E6E6E6"/>
<path d="M77.0093 174.236C77.6645 173.857 78.198 174.166 78.198 174.924C78.1755 175.337 78.0561 175.739 77.8497 176.098C77.6432 176.456 77.3553 176.761 77.0093 176.988C76.3494 177.367 75.8206 177.058 75.8206 176.3C75.842 175.887 75.9608 175.484 76.1674 175.126C76.374 174.767 76.6625 174.462 77.0093 174.236Z" fill="#E6E6E6"/>
<path d="M80.9641 171.967C81.624 171.583 82.1575 171.892 82.1575 172.65C82.1356 173.064 82.016 173.466 81.8086 173.825C81.6012 174.184 81.3118 174.488 80.9641 174.714C80.3089 175.093 79.7754 174.784 79.7754 174.026C79.7979 173.613 79.9173 173.212 80.1238 172.854C80.3303 172.496 80.6182 172.192 80.9641 171.967Z" fill="#E6E6E6"/>
<path d="M84.8858 169.692C85.541 169.313 86.0745 169.617 86.0745 170.38C86.052 170.793 85.9326 171.194 85.7261 171.552C85.5196 171.909 85.2317 172.214 84.8858 172.439C84.2259 172.818 83.6924 172.514 83.6924 171.751C83.715 171.338 83.835 170.937 84.0423 170.579C84.2497 170.221 84.5387 169.917 84.8858 169.692Z" fill="#E6E6E6"/>
<path d="M88.8218 167.418C89.4817 167.039 90.0152 167.347 90.0152 168.106C89.9925 168.519 89.8726 168.92 89.6652 169.278C89.4578 169.636 89.1688 169.94 88.8218 170.165C88.1666 170.544 87.6331 170.24 87.6331 169.482C87.6552 169.068 87.7744 168.666 87.9809 168.308C88.1874 167.949 88.4755 167.644 88.8218 167.418Z" fill="#E6E6E6"/>
<path d="M92.7622 165.143C93.4174 164.764 93.951 165.073 93.951 165.831C93.9277 166.244 93.8081 166.646 93.6016 167.004C93.3952 167.363 93.1078 167.668 92.7622 167.895C92.1024 168.274 91.5688 167.965 91.5688 167.207C91.5908 166.793 91.7104 166.391 91.9178 166.032C92.1252 165.673 92.4146 165.369 92.7622 165.143Z" fill="#E6E6E6"/>
<path d="M96.6982 162.864C97.3534 162.485 97.887 162.794 97.887 163.552C97.8644 163.965 97.7451 164.367 97.5386 164.726C97.3321 165.084 97.0443 165.389 96.6982 165.616C96.043 165.995 95.5095 165.686 95.5095 164.928C95.5321 164.515 95.6514 164.113 95.8579 163.754C96.0643 163.396 96.3522 163.091 96.6982 162.864Z" fill="#E6E6E6"/>
<path d="M100.62 160.599C101.28 160.215 101.813 160.524 101.813 161.282C101.789 161.694 101.669 162.093 101.461 162.45C101.254 162.806 100.966 163.108 100.62 163.332C99.9647 163.711 99.4312 163.402 99.4312 162.644C99.4558 162.234 99.5762 161.835 99.7826 161.48C99.989 161.125 100.276 160.823 100.62 160.599Z" fill="#E6E6E6"/>
<path d="M64.116 167.694C64.0916 167.259 63.9655 166.836 63.7476 166.459C63.5297 166.081 63.2263 165.761 62.8617 165.522L61.8368 164.933C61.4486 164.736 61.0198 164.634 60.5849 164.634C60.15 164.634 59.7211 164.736 59.333 164.933L43.669 173.993C43.3037 174.231 42.9996 174.551 42.7817 174.928C42.5637 175.306 42.438 175.729 42.4148 176.165V193.335C42.4391 193.77 42.5653 194.194 42.7831 194.571C43.001 194.948 43.3045 195.269 43.669 195.507L44.6893 196.092C45.0788 196.286 45.5082 196.388 45.9435 196.388C46.3789 196.388 46.8082 196.286 47.1978 196.092L62.857 187.032C63.2233 186.794 63.5282 186.474 63.747 186.097C63.9658 185.719 64.0922 185.296 64.116 184.86V167.694Z" fill="#257DFF"/>
<path opacity="0.2" d="M42.4148 193.336C42.4391 193.77 42.5653 194.194 42.7831 194.571C43.001 194.948 43.3045 195.269 43.669 195.507L44.6893 196.092C45.043 196.269 45.4302 196.369 45.8254 196.386C46.2206 196.403 46.6149 196.336 46.9825 196.19C46.3928 196.415 45.9435 196.083 45.9435 195.367V178.2C45.9591 177.764 46.0847 177.339 46.3086 176.965L42.7798 174.929C42.5554 175.303 42.4298 175.728 42.4148 176.165V193.336Z" fill="black"/>
<path opacity="0.3" d="M64.0691 167.338C63.9193 166.809 63.4373 166.636 62.8569 166.973L47.1977 176.029C46.8254 176.257 46.5203 176.58 46.3131 176.965L42.7844 174.929C42.9943 174.547 43.2989 174.224 43.6689 173.993L59.3235 164.937C59.713 164.743 60.1424 164.642 60.5778 164.642C61.0131 164.642 61.4425 164.743 61.832 164.937L62.8569 165.527C63.1713 165.731 63.4409 165.997 63.6492 166.308C63.8576 166.619 64.0005 166.97 64.0691 167.338Z" fill="white"/>
<path d="M54.7934 174.41C56.3003 173.539 57.5218 174.241 57.5218 175.982C57.4706 176.929 57.1968 177.85 56.7227 178.672C56.2487 179.493 55.5877 180.191 54.7934 180.709C53.2864 181.579 52.0649 180.873 52.0649 179.132C52.1155 178.185 52.3889 177.264 52.8631 176.444C53.3373 175.623 53.9987 174.926 54.7934 174.41Z" fill="#FAFAFA"/>
<path d="M60.1707 183.685C60.1707 180.826 58.163 179.67 55.6873 181.097L54.1382 181.991C51.6671 183.419 49.6594 186.896 49.6594 189.755V190.523C51.0634 190.991 58.7199 186.554 60.1707 184.35V183.685Z" fill="#FAFAFA"/>
<path d="M205.078 133.97L199.373 130.694C199.148 130.572 198.816 130.656 198.437 130.96C198.226 131.12 198.015 131.274 197.8 131.428L197.566 131.578L197.145 131.845L196.841 132.013C196.719 132.084 196.593 132.159 196.466 132.224C196.34 132.29 196.237 132.336 196.12 132.393C196.003 132.449 195.895 132.51 195.778 132.561L195.395 132.725L195.076 132.856C194.936 132.912 194.796 132.964 194.655 133.01L194.365 133.118L193.897 133.254L193.63 133.333C193.471 133.38 193.307 133.417 193.162 133.455L192.924 133.511L192.409 133.614L192.198 133.651L191.651 133.731H191.473C191.281 133.731 191.089 133.773 190.897 133.783H190.747C190.546 133.783 190.35 133.783 190.148 133.806H190.008C189.802 133.806 189.596 133.806 189.39 133.806H189.297C189.081 133.806 188.871 133.778 188.655 133.759H188.595L187.935 133.675H187.902L187.35 133.567C187.234 133.44 187.1 133.331 186.952 133.244L186.886 133.207L181.27 129.959C180.802 129.692 180.372 129.884 180.1 130.567C176.417 139.703 168.578 148.969 163.355 151.286C163.251 151.329 163.151 151.38 163.056 151.44C162.99 151.478 162.934 151.52 162.869 151.562C162.803 151.604 162.817 151.599 162.789 151.623C162.71 151.68 162.635 151.742 162.564 151.81C162.49 151.885 162.415 151.96 162.344 152.044C161.971 152.449 161.763 152.981 161.764 153.532L162.518 174.059C162.518 180.04 165.064 186.358 170.258 189.376L175.959 192.652L176.033 192.694C178.671 194.157 181.702 194.75 184.696 194.389C185.815 194.206 186.853 193.689 187.673 192.905C199.068 181.116 204.624 165.134 204.624 156.312L205.377 134.85C205.391 134.372 205.279 134.087 205.078 133.97Z" fill="#257DFF"/>
<path opacity="0.15" d="M175.795 192.577L170.23 189.362C165.04 186.344 162.49 180.026 162.49 174.045L161.731 153.504C161.737 153.147 161.825 152.796 161.987 152.478C162.149 152.16 162.382 151.884 162.667 151.669C162.543 151.775 162.427 151.891 162.321 152.016L168.021 155.292C167.644 155.699 167.437 156.235 167.441 156.789L168.19 177.311C168.185 183.269 170.694 189.54 175.795 192.577Z" fill="black"/>
<path opacity="0.3" d="M205.068 133.96C204.848 133.843 204.521 133.932 204.132 134.237C198.984 138.158 191.332 138.163 187.429 133.619L187.359 133.539C189.284 133.913 191.265 133.874 193.174 133.427C195.082 132.979 196.874 132.132 198.432 130.942C198.834 130.633 199.162 130.553 199.368 130.675L205.068 133.96Z" fill="white"/>
<path opacity="0.5" d="M186.886 133.179C186.451 132.973 186.053 133.179 185.796 133.825C182.117 142.965 174.274 152.226 169.046 154.543C168.653 154.722 168.303 154.983 168.021 155.311L162.321 152.035C162.427 151.91 162.543 151.794 162.667 151.688L162.794 151.585C162.839 151.557 162.883 151.525 162.925 151.492L163.065 151.407C163.155 151.352 163.249 151.303 163.346 151.262C168.569 148.946 176.413 139.679 180.091 130.539C180.288 130.071 180.559 129.823 180.873 129.823C181.01 129.824 181.144 129.863 181.261 129.936L186.886 133.179Z" fill="white"/>
<path d="M214.863 153.673L211.821 151.913L199.892 180.026L201.928 181.2L214.863 153.673Z" fill="#257DFF"/>
<path d="M196.794 172.547L193.747 170.792L190.476 177.714L193.523 179.469L196.794 172.547Z" fill="#632EF1"/>
<path d="M202.71 189.442L193.523 179.469L196.794 172.547L201.928 181.2L214.863 153.672L219.66 158.352L202.71 189.442Z" fill="#632EF1"/>
<path d="M190.476 177.714L193.523 179.469L202.71 189.442L199.668 187.706L190.476 177.714Z" fill="#632EF1"/>
</svg>
