<svg width="26" height="26" viewBox="0 0 26 26" fill="none" xmlns="http://www.w3.org/2000/svg">
<g clip-path="url(#clip0_46_311)">
<path d="M22.4138 14.2103V24.2069C22.4138 25.1972 21.611 26 20.6207 26H1.7931C0.8028 26 0 25.1972 0 24.2069V13.4483C0 12.4579 0.8028 11.6552 1.7931 11.6552H14.049L22.4138 14.2103Z" fill="#F2C94C"/>
<path d="M26 2.54616V6.16374C25.9989 9.23293 24.6954 12.1575 22.4138 14.2103C21.567 14.9752 20.6067 15.6043 19.5672 16.0751C19.3823 16.1603 19.1694 16.1603 18.9845 16.0751C17.1199 15.2323 15.5272 13.8864 14.3852 12.1886C14.2686 12.0137 14.1566 11.8389 14.049 11.6551C13.0691 9.99095 12.5521 8.09497 12.5517 6.16374V2.54616C12.5507 2.17498 12.8401 1.86781 13.2107 1.84684C14.4479 1.76616 17.1376 1.4434 18.8321 0.152362C19.0936 -0.0493226 19.4582 -0.0493226 19.7197 0.152362C21.4141 1.4434 24.1038 1.76616 25.341 1.84684C25.7116 1.86781 26.0011 2.17498 26 2.54616Z" fill="#EEF5FE"/>
<path d="M19.4942 14.1072C19.3576 14.1821 19.1923 14.1821 19.0558 14.1072C17.7782 13.4004 16.6872 12.3996 15.873 11.1876C14.8754 9.70256 14.3433 7.95372 14.3448 6.16468V3.93317C14.3449 3.71196 14.5063 3.52389 14.725 3.49027C16.2382 3.30377 17.7056 2.84673 19.0571 2.14096C19.1929 2.06434 19.3588 2.06434 19.4946 2.14096C20.8461 2.84673 22.3135 3.30377 23.8268 3.49027C24.0454 3.52389 24.2068 3.71196 24.2069 3.93317V6.16468C24.1946 9.4715 22.3907 12.5118 19.4942 14.1072Z" fill="#F2F2F2"/>
<path d="M19.2759 14.6138C19.1235 14.6141 18.9736 14.5757 18.8401 14.5022C17.5014 13.7594 16.3576 12.7102 15.5023 11.4405C14.4537 9.88101 13.8945 8.04396 13.8966 6.16472V3.93321C13.8975 3.48969 14.2226 3.11351 14.6613 3.04831C16.1203 2.87008 17.5351 2.42967 18.8374 1.74832C19.1096 1.59415 19.4426 1.59415 19.7147 1.74832C21.017 2.42954 22.4316 2.86994 23.8904 3.04831C24.3291 3.11351 24.6542 3.48969 24.6552 3.93321V6.16472C24.6456 9.63536 22.7525 12.8272 19.7116 14.5C19.5783 14.5741 19.4284 14.6132 19.2759 14.6138ZM19.2786 13.7173C22.0343 12.2019 23.75 9.30966 23.7586 6.16472V3.93321C22.1911 3.74472 20.6716 3.26972 19.2759 2.5319C17.8788 3.27052 16.3577 3.74583 14.7886 3.93411L14.7931 6.16472C14.7913 7.86485 15.2968 9.52684 16.2451 10.938C17.0207 12.0904 18.0583 13.0428 19.2727 13.7173H19.2786Z" fill="#EEF5FE"/>
<path d="M4.93105 13.8965H3.13795C2.64279 13.8965 2.24139 14.2979 2.24139 14.793V15.6896C2.24139 16.1847 2.64279 16.5861 3.13795 16.5861H4.93105C5.4262 16.5861 5.8276 16.1847 5.8276 15.6896V14.793C5.8276 14.2979 5.4262 13.8965 4.93105 13.8965Z" fill="#F3D55B"/>
<path d="M4.93102 17.0344H3.13792C2.39519 17.0344 1.79309 16.4323 1.79309 15.6896V14.7931C1.79309 14.0503 2.39519 13.4482 3.13792 13.4482H4.93102C5.67375 13.4482 6.27585 14.0503 6.27585 14.7931V15.6896C6.27585 16.4323 5.67375 17.0344 4.93102 17.0344ZM3.13792 14.3448C2.89034 14.3448 2.68964 14.5455 2.68964 14.7931V15.6896C2.68964 15.9372 2.89034 16.1379 3.13792 16.1379H4.93102C5.1786 16.1379 5.3793 15.9372 5.3793 15.6896V14.7931C5.3793 14.5455 5.1786 14.3448 4.93102 14.3448H3.13792Z" fill="#F2C94C"/>
<path d="M4.03447 19.2758H2.24137C1.99379 19.2758 1.79309 19.0751 1.79309 18.8275C1.79309 18.58 1.99379 18.3793 2.24137 18.3793H4.03447C4.28205 18.3793 4.48275 18.58 4.48275 18.8275C4.48275 19.0751 4.28205 19.2758 4.03447 19.2758Z" fill="#EEF5FE"/>
<path d="M7.62068 19.2758H5.82758C5.58 19.2758 5.3793 19.0751 5.3793 18.8275C5.3793 18.58 5.58 18.3793 5.82758 18.3793H7.62068C7.86826 18.3793 8.06896 18.58 8.06896 18.8275C8.06896 19.0751 7.86826 19.2758 7.62068 19.2758Z" fill="#EEF5FE"/>
<path d="M11.2069 19.2758H9.41379C9.16622 19.2758 8.96552 19.0751 8.96552 18.8275C8.96552 18.58 9.16622 18.3793 9.41379 18.3793H11.2069C11.4545 18.3793 11.6552 18.58 11.6552 18.8275C11.6552 19.0751 11.4545 19.2758 11.2069 19.2758Z" fill="#EEF5FE"/>
<path d="M14.7931 19.2758H13C12.7524 19.2758 12.5517 19.0751 12.5517 18.8275C12.5517 18.58 12.7524 18.3793 13 18.3793H14.7931C15.0406 18.3793 15.2413 18.58 15.2413 18.8275C15.2413 19.0751 15.0406 19.2758 14.7931 19.2758Z" fill="#EEF5FE"/>
<path d="M18.3793 19.2758H16.5862C16.3386 19.2758 16.1379 19.0751 16.1379 18.8275C16.1379 18.58 16.3386 18.3793 16.5862 18.3793H18.3793C18.6269 18.3793 18.8276 18.58 18.8276 18.8275C18.8276 19.0751 18.6269 19.2758 18.3793 19.2758Z" fill="#EEF5FE"/>
<path d="M5.37929 21.9654H4.03446C3.78688 21.9654 3.58618 21.7647 3.58618 21.5171C3.58618 21.2695 3.78688 21.0688 4.03446 21.0688H5.37929C5.62686 21.0688 5.82756 21.2695 5.82756 21.5171C5.82756 21.7647 5.62686 21.9654 5.37929 21.9654Z" fill="#EEF5FE"/>
<path d="M5.3793 23.7586H2.24137C1.99379 23.7586 1.79309 23.5579 1.79309 23.3103C1.79309 23.0628 1.99379 22.8621 2.24137 22.8621H5.3793C5.62687 22.8621 5.82757 23.0628 5.82757 23.3103C5.82757 23.5579 5.62687 23.7586 5.3793 23.7586Z" fill="#EEF5FE"/>
<path d="M20.1724 7.17244C19.9248 7.17244 19.7241 6.97174 19.7241 6.72417V5.82762C19.7241 5.58004 19.5234 5.37934 19.2759 5.37934C19.0283 5.37934 18.8276 5.58004 18.8276 5.82762V6.72417C18.8276 6.97174 18.6269 7.17244 18.3793 7.17244C18.1317 7.17244 17.931 6.97174 17.931 6.72417V5.82762C17.931 5.08489 18.5331 4.48279 19.2759 4.48279C20.0186 4.48279 20.6207 5.08489 20.6207 5.82762V6.72417C20.6207 6.84306 20.5735 6.95708 20.4894 7.04115C20.4053 7.12522 20.2913 7.17244 20.1724 7.17244Z" fill="#D1D4D1"/>
<path d="M20.1724 24.2069H17.4828C17.2352 24.2069 17.0345 24.0062 17.0345 23.7586C17.0345 23.5111 17.2352 23.3104 17.4828 23.3104H19.7241V21.5172C19.7241 21.2697 19.9248 21.069 20.1724 21.069C20.42 21.069 20.6207 21.2697 20.6207 21.5172V23.7586C20.6207 24.0062 20.42 24.2069 20.1724 24.2069Z" fill="#F2C94C"/>
<path d="M20.6207 6.72412H17.931C17.6835 6.72412 17.4828 6.92482 17.4828 7.1724V9.86205C17.4828 10.1096 17.6835 10.3103 17.931 10.3103H20.6207C20.8683 10.3103 21.069 10.1096 21.069 9.86205V7.1724C21.069 6.92482 20.8683 6.72412 20.6207 6.72412Z" fill="#F3D55B"/>
<path d="M19.2759 8.96553C19.5234 8.96553 19.7241 8.76483 19.7241 8.51725C19.7241 8.26967 19.5234 8.06897 19.2759 8.06897C19.0283 8.06897 18.8276 8.26967 18.8276 8.51725C18.8276 8.76483 19.0283 8.96553 19.2759 8.96553Z" fill="#CB8252"/>
</g>
<defs>
<clipPath id="clip0_46_311">
<rect width="26" height="26" fill="white"/>
</clipPath>
</defs>
</svg>
