<svg width="26" height="26" viewBox="0 0 26 26" fill="none" xmlns="http://www.w3.org/2000/svg">
<path d="M3.14844 23.795V12.543C3.14844 12.1223 3.48948 11.7812 3.91016 11.7812C4.33083 11.7812 4.67188 12.1223 4.67188 12.543V12.6934L5.4664 12.4042C6.37168 12.0747 7.32083 11.9076 8.28735 11.9076C8.60829 11.9076 8.92694 11.9261 9.24219 11.9623V2.28516C9.24219 1.02512 8.21707 0 6.95703 0H0.761719C0.341047 0 0 0.341047 0 0.761719V25.2383C0 25.659 0.341047 26 0.761719 26H6.95703C7.64151 26 8.25622 25.6971 8.67537 25.2188L3.80646 24.5497C3.42936 24.4978 3.14844 24.1756 3.14844 23.795Z" fill="#6FCF97"/>
<path d="M25.8833 17.229C25.4961 16.1652 24.2805 15.6616 23.2545 16.14L19.6608 17.8154C19.6566 17.9846 19.64 18.1555 19.6097 18.327C19.2815 20.1883 17.5002 21.4356 15.6389 21.1074L10.5098 20.203C10.0955 20.1299 9.81886 19.7348 9.89193 19.3205C9.96501 18.9063 10.36 18.6296 10.7744 18.7027L15.9035 19.6071C16.9392 19.7897 17.9268 19.0982 18.1095 18.0625C18.2921 17.0268 17.6005 16.0391 16.5648 15.8566L14.1165 15.4249C13.3839 15.2957 12.7007 15.0178 12.0859 14.599C10.2991 13.3817 8.01927 13.0963 5.98746 13.8358L4.67188 14.3146V23.1309L14.2025 24.4406C14.9924 24.5492 15.783 24.4109 16.4891 24.0409L24.9658 19.5983C25.8217 19.1497 26.2138 18.1371 25.8833 17.229Z" fill="#6FCF97"/>
<path d="M18.0781 13.7109C21.8582 13.7109 24.9336 10.6356 24.9336 6.85547C24.9336 3.07536 21.8582 0 18.0781 0C14.298 0 11.2227 3.07536 11.2227 6.85547C11.2227 10.6356 14.298 13.7109 18.0781 13.7109ZM15.753 8.25602C16.0647 7.97347 16.5464 7.99723 16.8289 8.30893C17.1567 8.67075 17.6734 8.88672 18.211 8.88672C18.7176 8.88672 19.0731 8.59041 19.1243 8.3039C19.1918 7.92558 18.6118 7.68031 18.4324 7.61414C17.5641 7.29386 16.793 6.95063 16.7606 6.93616C16.7239 6.91981 16.6886 6.90056 16.6549 6.87862C16.045 6.48096 15.7308 5.78368 15.8349 5.05888C15.9455 4.28802 16.5082 3.66036 17.3032 3.42093C18.8256 2.96222 20.0835 3.95982 20.191 4.04838C20.1915 4.04879 20.192 4.04925 20.1926 4.04965C20.1942 4.05102 20.1964 4.05285 20.1974 4.05361L20.1972 4.05382C20.3632 4.19352 20.469 4.40268 20.469 4.63668C20.469 5.05736 20.1279 5.3984 19.7072 5.3984C19.5206 5.3984 19.3498 5.33102 19.2173 5.21955L19.2171 5.21975L19.2219 5.22371C19.2148 5.21793 18.5037 4.65029 17.7426 4.87952C17.419 4.97697 17.3553 5.18878 17.3428 5.27531C17.3344 5.33401 17.33 5.47325 17.4505 5.57527C17.6551 5.66475 18.2844 5.93572 18.9596 6.18475C20.4057 6.71816 20.7676 7.76745 20.624 8.57157C20.4338 9.63696 19.419 10.4102 18.211 10.4102C17.2362 10.4102 16.3209 10.0172 15.7 9.33192C15.4175 9.02017 15.4412 8.53851 15.753 8.25602Z" fill="#6FCF97"/>
</svg>
