<svg width="27" height="33" viewBox="0 0 27 33" fill="none" xmlns="http://www.w3.org/2000/svg">
<path d="M15.6353 11.0354C13.5127 11.0354 11.4377 11.6648 9.67278 12.8441C7.90787 14.0234 6.53228 15.6995 5.71998 17.6606C4.90767 19.6216 4.69513 21.7795 5.10923 23.8614C5.52333 25.9432 6.54548 27.8556 8.04641 29.3565C9.54734 30.8574 11.4596 31.8796 13.5415 32.2937C15.6234 32.7078 17.7813 32.4953 19.7423 31.683C21.7034 30.8707 23.3795 29.4951 24.5588 27.7302C25.7381 25.9653 26.3675 23.8903 26.3675 21.7677C26.3676 20.3583 26.0901 18.9627 25.5508 17.6605C25.0115 16.3584 24.2209 15.1752 23.2243 14.1786C22.2277 13.182 21.0446 12.3915 19.7425 11.8522C18.4403 11.3129 17.0447 11.0353 15.6353 11.0354ZM18.8128 25.5406C18.5395 26.0997 18.1276 26.5795 17.6165 26.9345C17.3191 27.1419 16.9915 27.302 16.6451 27.4092V27.5162C16.6455 27.6555 16.6184 27.7936 16.5653 27.9224C16.5123 28.0512 16.4343 28.1683 16.3359 28.267C16.2375 28.3656 16.1206 28.4439 15.992 28.4973C15.8633 28.5507 15.7253 28.5782 15.586 28.5782C15.4466 28.5782 15.3087 28.5507 15.18 28.4973C15.0513 28.4439 14.9344 28.3656 14.836 28.267C14.7376 28.1683 14.6597 28.0512 14.6066 27.9224C14.5535 27.7936 14.5264 27.6555 14.5268 27.5162V27.4092C14.206 27.312 13.9009 27.1687 13.6213 26.9838C13.1046 26.6479 12.6839 26.1837 12.4002 25.6366C12.1441 25.1392 11.9265 24.5713 12.3042 24.0643C12.4034 23.9317 12.5322 23.8242 12.6804 23.7504C12.8286 23.6765 12.992 23.6384 13.1576 23.639C13.3842 23.6407 13.6045 23.7141 13.7869 23.8487C13.9692 23.9832 14.1043 24.1721 14.1728 24.3881C14.273 24.7346 14.4971 25.0321 14.8023 25.2242C15.1076 25.4162 15.4728 25.4894 15.8285 25.4298C16.1842 25.3702 16.5055 25.1819 16.7315 24.9008C16.9574 24.6197 17.0722 24.2654 17.054 23.9052C17.0401 23.6778 16.9735 23.4567 16.8595 23.2595C16.7454 23.0623 16.587 22.8943 16.3968 22.7689C15.8037 22.3732 14.9979 22.5311 14.3485 22.2643C13.7316 22.0127 13.2062 21.5787 12.8427 21.0205C12.4791 20.4622 12.2947 19.8062 12.3141 19.1402C12.3335 18.4743 12.5557 17.8302 12.9512 17.294C13.3466 16.7578 13.8963 16.3551 14.5268 16.1399V16.0164C14.5266 15.8772 14.5538 15.7393 14.607 15.6106C14.6601 15.4819 14.7381 15.3649 14.8364 15.2664C14.9348 15.1678 15.0517 15.0897 15.1803 15.0364C15.3089 14.983 15.4467 14.9556 15.586 14.9556C15.7252 14.9556 15.8631 14.983 15.9917 15.0364C16.1203 15.0897 16.2371 15.1678 16.3355 15.2664C16.4339 15.3649 16.5119 15.4819 16.565 15.6106C16.6181 15.7393 16.6454 15.8772 16.6451 16.0164V16.1426C16.9845 16.2592 17.3024 16.4307 17.5863 16.6502C18.0974 17.0436 18.4796 17.5805 18.6839 18.1923C18.6865 18.1975 18.6884 18.203 18.6893 18.2088C18.725 18.4073 18.7291 18.6103 18.7013 18.8101C18.647 18.9914 18.5458 19.1552 18.4078 19.2847C18.2698 19.4143 18.1 19.5051 17.9156 19.5478C17.6615 19.6108 17.3931 19.5761 17.1634 19.4506C16.9337 19.3251 16.7595 19.1179 16.6753 18.8701C16.5998 18.6403 16.4535 18.4403 16.2573 18.2988C16.0611 18.1573 15.8251 18.0816 15.5832 18.0826C15.2903 18.0807 15.0078 18.1911 14.7938 18.3911C14.5798 18.5911 14.4506 18.8655 14.4327 19.1578C14.4148 19.4502 14.5095 19.7383 14.6975 19.9629C14.8855 20.1875 15.1524 20.3316 15.4433 20.3655C16.1408 20.3614 16.8263 20.5463 17.4272 20.9006C18.0945 21.304 18.6148 21.9109 18.9116 22.632C19.0974 23.0972 19.1847 23.596 19.1676 24.0967C19.1506 24.5973 19.0298 25.089 18.8128 25.5406ZM23.6941 20.6324C21.912 17.8527 19.5503 15.491 16.7706 13.7089C16.709 13.6694 16.6629 13.6099 16.6399 13.5404C16.617 13.471 16.6185 13.3957 16.6444 13.3273C16.6702 13.2588 16.7187 13.2013 16.7819 13.1644C16.845 13.1274 16.9189 13.1133 16.9913 13.1243C18.8206 13.412 20.5116 14.2724 21.8211 15.5819C23.1305 16.8913 23.991 18.5823 24.2787 20.4117C24.2897 20.484 24.2755 20.5579 24.2386 20.6211C24.2017 20.6842 24.1441 20.7328 24.0757 20.7586C24.0073 20.7844 23.932 20.786 23.8626 20.763C23.7931 20.7401 23.7336 20.694 23.6941 20.6324V20.6324Z" fill="#9B51E0"/>
<path d="M9.12839 8.90925C11.0104 7.87533 13.0873 7.24515 15.2266 7.05896V8.82548C15.2266 8.91369 15.2527 8.99992 15.3017 9.07327C15.3508 9.14662 15.4204 9.20379 15.5019 9.23755C15.5834 9.27131 15.6731 9.28014 15.7596 9.26293C15.8461 9.24572 15.9256 9.20324 15.988 9.14086L19.8624 5.26653C20.0296 5.09923 20.1236 4.87233 20.1236 4.63575C20.1236 4.39916 20.0296 4.17227 19.8624 4.00496L15.988 0.130637C15.9256 0.0682597 15.8461 0.0257801 15.7596 0.00857027C15.6731 -0.00863952 15.5834 0.000193432 15.5019 0.0339521C15.4204 0.0677108 15.3508 0.124879 15.3018 0.198227C15.2527 0.271576 15.2266 0.35781 15.2266 0.446025V2.1989C12.3635 2.7423 9.65709 3.91574 7.30348 5.63422C4.17108 7.95871 1.86118 11.2212 0.70921 14.9478C0.493995 15.6639 0.347667 16.395 0.194574 17.1259C-0.0221133 18.5471 -0.057986 19.99 0.0878117 21.4202C0.0928882 21.4796 0.0983663 21.5389 0.104246 21.5981C0.121028 21.7525 0.195556 21.8949 0.312889 21.9967C0.430222 22.0984 0.581688 22.1521 0.736923 22.1469C0.892158 22.1417 1.03969 22.078 1.14994 21.9686C1.26019 21.8592 1.32501 21.7121 1.33141 21.557C1.33286 21.5312 1.33447 21.5055 1.33609 21.4798C1.39559 20.1924 1.61336 18.9172 1.98448 17.683C2.41277 16.4694 2.95481 15.2991 3.60337 14.1876C4.96879 11.989 6.86979 10.1729 9.12839 8.90925Z" fill="#9B51E0"/>
</svg>
