<svg width="20" height="20" viewBox="0 0 20 20" fill="none" xmlns="http://www.w3.org/2000/svg">
<path d="M18.0273 5.53917C17.7655 4.93299 17.3881 4.38368 16.916 3.92198C16.4436 3.45891 15.8866 3.09091 15.2754 2.838C14.6416 2.5747 13.9617 2.43993 13.2754 2.44151C12.3125 2.44151 11.373 2.70518 10.5566 3.20323C10.3613 3.32237 10.1758 3.45323 10 3.59581C9.82422 3.45323 9.63867 3.32237 9.44336 3.20323C8.62695 2.70518 7.6875 2.44151 6.72461 2.44151C6.03125 2.44151 5.35937 2.57432 4.72461 2.838C4.11133 3.0919 3.55859 3.45714 3.08398 3.92198C2.61132 4.38316 2.23375 4.9326 1.97266 5.53917C1.70117 6.17003 1.5625 6.83995 1.5625 7.5294C1.5625 8.17979 1.69531 8.85753 1.95898 9.54698C2.17969 10.1232 2.49609 10.7208 2.90039 11.3243C3.54102 12.2794 4.42187 13.2755 5.51562 14.2853C7.32812 15.9591 9.12305 17.1153 9.19922 17.1622L9.66211 17.4591C9.86719 17.5899 10.1309 17.5899 10.3359 17.4591L10.7988 17.1622C10.875 17.1134 12.668 15.9591 14.4824 14.2853C15.5762 13.2755 16.457 12.2794 17.0977 11.3243C17.502 10.7208 17.8203 10.1232 18.0391 9.54698C18.3027 8.85753 18.4355 8.17979 18.4355 7.5294C18.4375 6.83995 18.2988 6.17003 18.0273 5.53917ZM10 15.9142C10 15.9142 3.04687 11.4591 3.04687 7.5294C3.04687 5.53917 4.69336 3.92589 6.72461 3.92589C8.15234 3.92589 9.39062 4.72276 10 5.88682C10.6094 4.72276 11.8477 3.92589 13.2754 3.92589C15.3066 3.92589 16.9531 5.53917 16.9531 7.5294C16.9531 11.4591 10 15.9142 10 15.9142Z" fill="#257DFF"/>
</svg>
