<svg width="100" height="100" viewBox="0 0 100 100" fill="none" xmlns="http://www.w3.org/2000/svg">
<path d="M51.7375 39.1311C51.7375 38.1711 50.96 37.3936 50 37.3936C49.0401 37.3936 48.2625 38.1711 48.2625 39.1311C48.2625 56.7955 35.6221 71.6061 18.2065 74.3481C17.2584 74.4971 16.6104 75.3866 16.76 76.3346C16.895 77.1911 17.633 77.8022 18.4741 77.8022C18.5635 77.8022 18.6551 77.7952 18.7465 77.7807C37.8631 74.7715 51.7375 58.516 51.7375 39.1311Z" fill="#EB5757"/>
<path d="M50 0C28.423 0 10.8679 17.5539 10.8679 39.132C10.8679 40.091 11.6455 40.8695 12.6054 40.8695C13.5654 40.8695 14.3429 40.091 14.3429 39.132C14.3429 19.4699 30.3384 3.47441 50 3.47441C69.6615 3.47441 85.6564 19.4699 85.6564 39.1314C85.6564 47.1264 84.3673 54.985 81.8244 62.49C81.5158 63.3984 82.0035 64.385 82.9125 64.6926C83.0964 64.7561 83.2849 64.7855 83.4699 64.7855C84.1949 64.7855 84.8705 64.3295 85.116 63.6055C87.781 55.7404 89.132 47.507 89.132 39.132C89.132 17.5539 71.5769 0 50 0Z" fill="#EB5757"/>
<path d="M59.2154 39.132C59.2154 34.051 55.0808 29.917 50 29.917C44.9164 29.917 40.7814 34.051 40.7814 39.132C40.7814 53.6904 29.8644 65.7439 15.3879 67.1695C14.4334 67.265 13.7359 68.1145 13.8295 69.0701C13.923 70.0246 14.7689 70.7186 15.7289 70.6281C31.9929 69.0262 44.2568 55.4867 44.2568 39.132C44.2568 35.967 46.8334 33.392 49.9998 33.392C53.1648 33.392 55.7398 35.967 55.7398 39.132C55.7398 59.0814 41.6218 76.7734 22.1722 81.2C21.2367 81.4135 20.6507 82.3436 20.8632 83.2795C21.0472 84.0855 21.7638 84.6314 22.5562 84.6314C22.6838 84.6314 22.8136 84.617 22.9437 84.5879C43.9605 79.8055 59.2154 60.6881 59.2154 39.132Z" fill="#EB5757"/>
<path d="M51.574 94.261C51.5156 94.1944 51.4541 94.1289 51.4015 94.0559C50.8531 93.2969 49.8035 93.1084 49.0249 93.6289C47.449 94.6854 45.9208 95.6199 44.3554 96.485C43.5154 96.9484 43.2109 98.0061 43.6753 98.8459C44.1388 99.6859 45.1958 99.9904 46.0359 99.526C47.257 98.852 48.4544 98.1385 49.6654 97.3635C50.2964 98.074 50.9695 98.7865 51.6734 99.4914C52.0128 99.8309 52.4574 100 52.9019 100C53.3455 100 53.791 99.8311 54.1304 99.4914C54.8089 98.8129 54.8089 97.7125 54.1304 97.0344C53.2205 96.124 52.3705 95.2026 51.574 94.261Z" fill="#EB5757"/>
<path d="M69.6293 90.45C64.9989 87.361 61.2258 83.128 58.7178 78.2036C57.4738 75.7641 56.5457 73.1491 55.9588 70.4311C55.8153 69.7676 55.2992 69.2487 54.6379 69.101C53.9735 68.953 53.2885 69.2049 52.8774 69.745C46.411 78.2415 37.6379 84.3819 27.5063 87.5024C26.5893 87.7848 26.0752 88.7575 26.3578 89.6744C26.6402 90.5914 27.6133 91.1055 28.5303 90.8239C38.2588 87.8264 46.8143 82.2264 53.4633 74.5358C54.0434 76.3463 54.7639 78.1008 55.6213 79.7813C58.4078 85.2518 62.6002 89.9518 67.7479 93.3729C68.0328 93.5629 68.3744 93.6639 68.7168 93.6639C69.6768 93.6639 70.4502 92.8854 70.4518 91.9258C70.4518 91.303 70.1223 90.7571 69.6293 90.45Z" fill="#EB5757"/>
<path d="M79.7554 79.0606C73.8619 76.1246 70.2009 70.225 70.2009 63.6641C70.2009 62.2401 70.3789 60.818 70.732 59.4352C72.113 55.4967 73.0884 51.4112 73.6314 47.2987C73.9914 44.6698 74.1728 41.9221 74.1728 39.1317C74.1728 25.8022 63.3279 14.9583 49.9994 14.9583C36.6705 14.9583 25.8259 25.8022 25.8259 39.1317C25.8259 46.3576 19.9525 52.2856 12.7334 52.3451C11.7734 52.3531 11.0029 53.1371 11.0103 54.0961C11.0177 55.0506 11.7949 55.8201 12.7478 55.8201C12.7523 55.8201 12.7568 55.8201 12.7623 55.8201C21.8818 55.7446 29.3013 48.2586 29.3013 39.1317C29.3013 27.7182 38.5863 18.4332 49.9998 18.4332C61.4132 18.4332 70.6982 27.7182 70.6982 39.1317C70.6982 41.7653 70.5273 44.3547 70.1877 46.8356C69.6716 50.7436 68.7441 54.618 67.4291 58.3541C67.4127 58.4 67.3976 58.4471 67.3851 58.4942C66.9476 60.1836 66.7261 61.9227 66.7261 63.6647C66.7261 71.5537 71.1255 78.6447 78.2066 82.1717C78.4556 82.2957 78.7197 82.3541 78.9797 82.3541C79.6181 82.3541 80.2326 82.0012 80.5367 81.3897C80.9634 80.5315 80.6144 79.4875 79.7554 79.0606Z" fill="#EB5757"/>
<path d="M75.2756 85.1546C67.531 80.7856 62.7205 72.5505 62.7205 63.6645C62.7205 61.5235 63.0029 59.3825 63.559 57.2991C64.3939 54.9577 65.081 52.4952 65.6035 49.9731C66.3295 46.4167 66.6965 42.7681 66.6965 39.1321C66.6965 29.9282 59.2064 22.4401 50.0004 22.4401C40.7933 22.4401 33.3023 29.9282 33.3023 39.1321C33.3023 50.2101 24.6443 59.2901 13.5918 59.8046C12.6332 59.8491 11.8918 60.662 11.9373 61.6212C11.9818 62.5796 12.8129 63.3237 13.7527 63.2763C26.6637 62.6757 36.7771 52.0702 36.7771 39.1327C36.7771 31.8446 42.7086 25.9163 50.0002 25.9163C57.2902 25.9163 63.2207 31.8452 63.2207 39.1327C63.2207 42.5366 62.8762 45.9507 62.1992 49.2737C61.7027 51.6698 61.0482 54.0093 60.2517 56.2282C60.2252 56.3003 60.2047 56.3753 60.1883 56.4513C59.5627 58.8118 59.2447 61.2382 59.2447 63.6653C59.2447 73.8028 64.7328 83.1977 73.5678 88.1817C73.8377 88.3337 74.1303 88.4061 74.4197 88.4061C75.0261 88.4061 75.6156 88.0876 75.9342 87.5206C76.4064 86.6856 76.1109 85.6257 75.2756 85.1546Z" fill="#EB5757"/>
<path d="M83.239 72.4375C79.8611 70.8384 77.6791 67.3945 77.6791 63.665C77.6791 62.9451 77.7621 62.2215 77.9256 61.5115L77.9535 61.4384C77.9634 61.4144 77.972 61.3894 77.9804 61.365C79.09 58.125 79.9509 54.798 80.541 51.4861C81.1894 47.9361 81.555 44.307 81.6269 40.7322C81.6464 40.2053 81.6548 39.6726 81.6548 39.1328C81.6548 21.6783 67.4543 7.47772 50.0004 7.47772C32.5465 7.47772 18.3461 21.6779 18.3461 39.1324C18.3461 42.2545 15.8061 44.8295 12.6852 44.8724C11.7252 44.8849 10.9582 45.673 10.9711 46.633C10.9836 47.592 11.7477 48.3291 12.7317 48.347C17.7436 48.2781 21.8211 44.1435 21.8211 39.132C21.8211 23.593 34.4615 10.9519 50 10.9519C65.5381 10.9519 78.1791 23.593 78.1791 39.132C78.1791 39.6269 78.172 40.114 78.1525 40.6301C78.0845 44.0521 77.7371 47.4941 77.1195 50.8691C76.5634 54.0037 75.7506 57.1435 74.705 60.2037C74.6705 60.2927 74.6361 60.3822 74.607 60.4713C74.592 60.5162 74.5785 60.5623 74.5679 60.6093C74.3263 61.6135 74.2035 62.6418 74.2035 63.6648C74.2035 68.7308 77.1666 73.4074 81.7515 75.5779C81.991 75.6914 82.2445 75.7455 82.4935 75.7455C83.1451 75.7455 83.7679 75.3785 84.065 74.7519C84.4765 73.884 84.106 72.848 83.239 72.4375Z" fill="#EB5757"/>
<path d="M62.6929 94.6769C60.7189 93.0955 58.9019 91.3343 57.2924 89.4384C55.7144 87.5865 54.3174 85.6134 53.1394 83.5759C52.8799 83.1279 52.4349 82.8185 51.924 82.7324C51.414 82.6474 50.891 82.7914 50.5 83.1298C45.7699 87.2119 40.458 90.4863 34.7105 92.8648C34.0291 93.0988 33.541 93.7463 33.541 94.5088C33.541 95.4677 34.323 96.2463 35.282 96.2463C35.509 96.2463 35.7336 96.2008 35.9439 96.1148C41.4445 93.8498 46.5695 90.8103 51.2039 87.0689C52.2359 88.666 53.3879 90.2134 54.6443 91.6884C56.3953 93.7515 58.3722 95.6699 60.5218 97.389C60.8418 97.6455 61.2244 97.7695 61.6064 97.7695C62.116 97.7695 62.6205 97.5465 62.9644 97.1185C63.564 96.3689 63.4425 95.2756 62.6929 94.6769Z" fill="#EB5757"/>
</svg>
