<svg width="64" height="64" viewBox="0 0 64 64" fill="none" xmlns="http://www.w3.org/2000/svg">
<path d="M62.125 30.125H52.625C51.5895 30.125 50.75 30.9645 50.75 32C50.75 41.0711 44.3084 48.6373 35.75 50.3746V42.609C40.1193 41.0645 43.25 36.8983 43.25 32C43.25 30.9645 42.4105 30.125 41.375 30.125H37.625C36.5895 30.125 35.75 30.9645 35.75 32C35.75 34.0711 34.0711 35.75 32 35.75C29.9289 35.75 28.25 34.0711 28.25 32C28.25 30.9645 27.4105 30.125 26.375 30.125H22.625C21.5895 30.125 20.75 30.9645 20.75 32C20.75 36.8983 23.8808 41.0645 28.25 42.609V50.3746C19.6916 48.6373 13.25 41.0711 13.25 32C13.25 30.9645 12.4105 30.125 11.375 30.125H1.875C0.8395 30.125 0 30.9645 0 32C0 33.0355 0.8395 33.875 1.875 33.875H3.938C4.01713 35.0846 4.1715 36.2795 4.40112 37.4539L2.41625 37.9857C1.416 38.2537 0.8225 39.2819 1.0905 40.2821C1.3585 41.2824 2.38662 41.8759 3.38687 41.6079L5.367 41.0773C5.75488 42.2184 6.21625 43.3324 6.749 44.4135L4.97363 45.4385C4.07688 45.9562 3.76962 47.103 4.28737 47.9997C4.80513 48.8965 5.95188 49.2038 6.84863 48.686L8.62825 47.6585C9.29638 48.6513 10.0321 49.6054 10.8315 50.5166L9.3725 51.9759C8.64025 52.7081 8.64025 53.8952 9.3725 54.6275C10.1048 55.3597 11.2919 55.3597 12.0241 54.6275L13.483 53.1686C14.3942 53.968 15.3485 54.7038 16.3411 55.3719L15.3136 57.1515C14.7959 58.0483 15.1031 59.195 15.9999 59.7127C16.8966 60.2305 18.0434 59.9233 18.5611 59.0265L19.5861 57.2511C20.6672 57.7839 21.7812 58.2453 22.9224 58.6331L22.3918 60.6133C22.1238 61.6135 22.7173 62.6416 23.7175 62.9096C24.7178 63.1776 25.7459 62.5841 26.0139 61.5839L26.5457 59.599C27.7201 59.8285 28.915 59.983 30.1246 60.0621V62.125C30.1246 63.1605 30.9641 64 31.9996 64C33.0351 64 33.8746 63.1605 33.8746 62.125V60.062C35.0843 59.9829 36.2791 59.8285 37.4535 59.5989L37.9854 61.5838C38.2534 62.584 39.2815 63.1775 40.2817 62.9095C41.282 62.6415 41.8755 61.6134 41.6075 60.6131L41.0769 58.633C42.218 58.2451 43.332 57.7837 44.4131 57.251L45.4381 59.0264C45.9559 59.9231 47.1026 60.2304 47.9994 59.7126C48.8961 59.1949 49.2034 58.0481 48.6856 57.1514L47.6581 55.3717C48.6509 54.7036 49.605 53.9679 50.5163 53.1685L51.9751 54.6274C52.7074 55.3596 53.8945 55.3596 54.6268 54.6274C55.359 53.8951 55.359 52.708 54.6268 51.9757L53.1679 50.5169C53.9672 49.6056 54.703 48.6514 55.3711 47.6587L57.1507 48.6862C58.0475 49.204 59.1943 48.8967 59.712 48C60.2298 47.1033 59.9225 45.9565 59.0257 45.4388L57.2504 44.4137C57.7831 43.3326 58.2445 42.2186 58.6324 41.0775L60.6125 41.6081C61.6128 41.8761 62.6409 41.2826 62.9089 40.2824C63.1769 39.2821 62.5834 38.254 61.5831 37.986L59.5983 37.4541C59.8278 36.2797 59.9823 35.0849 60.0614 33.8753H62.125C63.1605 33.8753 64 33.0358 64 32.0003C64 30.9645 63.1605 30.125 62.125 30.125Z" fill="#632EF1"/>
<path d="M32 64C33.0356 64 33.875 63.1605 33.875 62.125V60.062C35.0846 59.9829 36.2795 59.8285 37.4539 59.5989L37.9857 61.5837C38.2537 62.584 39.2819 63.1775 40.2821 62.9095C41.2824 62.6415 41.8759 61.6134 41.6079 60.6131L41.0773 58.633C42.2184 58.2451 43.3324 57.7837 44.4135 57.251L45.4385 59.0264C45.9562 59.9231 47.103 60.2304 47.9997 59.7126C48.8965 59.1949 49.2038 58.0481 48.686 57.1514L47.6585 55.3717C48.6513 54.7036 49.6054 53.9679 50.5166 53.1685L51.9755 54.6274C52.7077 55.3596 53.8949 55.3596 54.6271 54.6274C55.3594 53.8951 55.3594 52.708 54.6271 51.9757L53.1683 50.5169C53.9676 49.6056 54.7034 48.6514 55.3715 47.6587L57.1511 48.6862C58.0479 49.204 59.1946 48.8967 59.7124 48C60.2301 47.1032 59.9229 45.9565 59.0261 45.4387L57.2508 44.4137C57.7835 43.3326 58.2449 42.2186 58.6328 41.0775L60.6129 41.6081C61.6131 41.8761 62.6412 41.2826 62.9092 40.2824C63.1772 39.2821 62.5837 38.254 61.5835 37.986L59.5986 37.4541C59.8281 36.2797 59.9826 35.0849 60.0617 33.8752H62.125C63.1605 33.8752 64 33.0357 64 32.0002C64 30.9647 63.1605 30.1252 62.125 30.1252H52.625C51.5895 30.1252 50.75 30.9647 50.75 32.0002C50.75 41.0714 44.3084 48.6375 35.75 50.3749V42.6092C40.1192 41.0647 43.25 36.8985 43.25 32.0002C43.25 30.9647 42.4105 30.1252 41.375 30.1252H37.625C36.5895 30.1252 35.75 30.9647 35.75 32.0002C35.75 34.0714 34.0711 35.7502 32 35.7502V64Z" fill="#257DFF"/>
<path d="M3.875 24.5V9.49999C3.875 8.81911 4.24412 8.19161 4.8395 7.86099L16.0895 1.61099C16.6702 1.28836 17.3782 1.29699 17.9509 1.63411C18.5235 1.97099 18.875 2.58574 18.875 3.24999V6.31336L27.3395 1.61099C27.9201 1.28836 28.6284 1.29699 29.2009 1.63411C29.7735 1.97099 30.125 2.58574 30.125 3.24999V6.31336L38.5895 1.61099C39.1701 1.28836 39.8783 1.29699 40.4509 1.63411C41.0235 1.97099 41.375 2.58574 41.375 3.24999V24.5H3.875Z" fill="#F9F1F1"/>
<path d="M40.4507 1.63394C39.8781 1.29694 39.17 1.28819 38.5894 1.61082L30.125 6.31332V3.24994C30.125 2.58569 29.7735 1.97094 29.2008 1.63394C28.6283 1.29694 27.92 1.28819 27.3394 1.61082L22.625 4.23007V24.4999H41.375V3.24994C41.375 2.58569 41.0235 1.97094 40.4507 1.63394Z" fill="#E2DFF4"/>
<path d="M56.3636 1.66912C56.2586 0.719 55.4557 0 54.5 0H49.5C48.5442 0 47.7414 0.719 47.6364 1.66912L45.1364 24.2941H58.8636L56.3636 1.66912Z" fill="#F9F1F1"/>
<path d="M56.3636 1.66912C56.2586 0.719 55.4558 0 54.5 0H52V24.2941H58.8636L56.3636 1.66912Z" fill="#E2DFF4"/>
<path d="M12 24.5V18.875C12 17.8395 12.8395 17 13.875 17H18.875C19.9105 17 20.75 17.8395 20.75 18.875V24.5H12Z" fill="#AED0FF"/>
<path d="M16.375 17V24.5H20.75V18.875C20.75 17.8395 19.9105 17 18.875 17H16.375Z" fill="#632EF1"/>
<path d="M32 18.875H29.5C28.4645 18.875 27.625 18.0355 27.625 17C27.625 15.9645 28.4645 15.125 29.5 15.125H32C33.0355 15.125 33.875 15.9645 33.875 17C33.875 18.0355 33.0355 18.875 32 18.875Z" fill="#632EF1"/>
<path d="M62.125 26.375H1.875C0.8395 26.375 0 25.5355 0 24.5C0 23.4645 0.8395 22.625 1.875 22.625H62.125C63.1605 22.625 64 23.4645 64 24.5C64 25.5355 63.1605 26.375 62.125 26.375Z" fill="#B2FA09"/>
<path d="M62.125 22.625H32V26.375H62.125C63.1605 26.375 64 25.5355 64 24.5C64 23.4645 63.1605 22.625 62.125 22.625Z" fill="#00DD80"/>
</svg>
