<svg width="34" height="34" viewBox="0 0 34 34" fill="none" xmlns="http://www.w3.org/2000/svg">
<path d="M29.2517 31.875H20.6858C19.2397 31.875 18.0625 30.6978 18.0625 29.2517V18.5608C18.0625 17.1147 19.2397 15.9375 20.6858 15.9375H29.2517C30.6978 15.9375 31.875 17.1147 31.875 18.5608V29.2517C31.875 30.6978 30.6978 31.875 29.2517 31.875ZM20.6858 18.0625C20.4106 18.0625 20.1875 18.2856 20.1875 18.5608V29.2517C20.1875 29.5269 20.4106 29.75 20.6858 29.75H29.2517C29.5269 29.75 29.75 29.5269 29.75 29.2517V18.5608C29.75 18.2856 29.5269 18.0625 29.2517 18.0625H20.6858Z" fill="white"/>
<path d="M29.2517 13.8125H20.6858C19.2397 13.8125 18.0625 12.6353 18.0625 11.1892V4.74831C18.0625 3.30225 19.2397 2.125 20.6858 2.125H29.2517C30.6978 2.125 31.875 3.30225 31.875 4.74831V11.1892C31.875 12.6353 30.6978 13.8125 29.2517 13.8125ZM20.6858 4.25C20.4106 4.25 20.1875 4.47312 20.1875 4.74831V11.1892C20.1875 11.4644 20.4106 11.6875 20.6858 11.6875H29.2517C29.5269 11.6875 29.75 11.4644 29.75 11.1892V4.74831C29.75 4.47312 29.5269 4.25 29.2517 4.25H20.6858Z" fill="white"/>
<path d="M13.3142 18.0625H4.74831C3.30225 18.0625 2.125 16.8853 2.125 15.4392V4.74831C2.125 3.30225 3.30225 2.125 4.74831 2.125H13.3142C14.7603 2.125 15.9375 3.30225 15.9375 4.74831V15.4392C15.9375 16.8853 14.7603 18.0625 13.3142 18.0625ZM4.74831 4.25C4.47312 4.25 4.25 4.47312 4.25 4.74831V15.4392C4.25 15.7144 4.47312 15.9375 4.74831 15.9375H13.3142C13.5894 15.9375 13.8125 15.7144 13.8125 15.4392V4.74831C13.8125 4.47312 13.5894 4.25 13.3142 4.25H4.74831Z" fill="white"/>
<path d="M13.3142 31.875H4.74831C3.30225 31.875 2.125 30.6978 2.125 29.2517V22.8108C2.125 21.3647 3.30225 20.1875 4.74831 20.1875H13.3142C14.7603 20.1875 15.9375 21.3647 15.9375 22.8108V29.2517C15.9375 30.6978 14.7603 31.875 13.3142 31.875ZM4.74831 22.3125C4.47312 22.3125 4.25 22.5356 4.25 22.8108V29.2517C4.25 29.5269 4.47312 29.75 4.74831 29.75H13.3142C13.5894 29.75 13.8125 29.5269 13.8125 29.2517V22.8108C13.8125 22.5356 13.5894 22.3125 13.3142 22.3125H4.74831Z" fill="white"/>
</svg>
