<svg width="64" height="64" viewBox="0 0 64 64" fill="none" xmlns="http://www.w3.org/2000/svg">
<g clip-path="url(#clip0_85_3641)">
<path d="M62.0801 56.0001L55.6801 30.4001C55.0401 27.5201 52.4801 25.6001 49.6001 25.6001H44.8001V20.8001C44.8001 19.8401 44.1601 19.2001 43.2001 19.2001H36.8001C35.8401 19.2001 35.2001 19.8401 35.2001 20.8001V25.6001H28.8001V20.8001C28.8001 19.8401 28.1601 19.2001 27.2001 19.2001H20.8001C19.8401 19.2001 19.2001 19.8401 19.2001 20.8001V25.6001H14.7201C11.5201 25.6001 8.96009 27.5201 8.32009 30.4001L1.92009 56.0001C0.960086 60.1601 4.16009 64.0001 8.32009 64.0001H56.0001C59.8401 64.0001 63.0401 60.1601 62.0801 56.0001ZM32.0001 57.6001C24.9601 57.6001 19.2001 51.8401 19.2001 44.8001C19.2001 37.7601 24.9601 32.0001 32.0001 32.0001C39.0401 32.0001 44.8001 37.7601 44.8001 44.8001C44.8001 51.8401 39.0401 57.6001 32.0001 57.6001Z" fill="#257DFF"/>
<path d="M31.9999 51.2C35.5345 51.2 38.3999 48.3347 38.3999 44.8C38.3999 41.2654 35.5345 38.4 31.9999 38.4C28.4653 38.4 25.5999 41.2654 25.5999 44.8C25.5999 48.3347 28.4653 51.2 31.9999 51.2Z" fill="#632EF1"/>
<path d="M32 0C14.4 0 0 5.76 0 13.12V19.2C0 21.12 1.6 22.4 3.2 22.4H12.16C14.72 22.4 16.32 19.84 15.04 17.6C14.08 15.36 15.68 12.8 18.24 12.8H46.08C48.64 12.8 50.24 15.36 48.96 17.6C47.68 19.84 49.28 22.4 51.84 22.4H60.8C62.72 22.4 64 20.8 64 19.2V13.12C64 5.76 49.6 0 32 0Z" fill="#257DFF"/>
</g>
<defs>
<clipPath id="clip0_85_3641">
<rect width="64" height="64" fill="white"/>
</clipPath>
</defs>
</svg>
