<svg width="64" height="64" viewBox="0 0 64 64" fill="none" xmlns="http://www.w3.org/2000/svg">
<path d="M32 0C14.3801 0 0 14.3811 0 32C0 49.6199 14.3811 64 32 64C49.6199 64 64 49.6189 64 32C64 14.3801 49.6189 0 32 0ZM22.4548 5.41125C20.2593 8.20263 18.6637 11.6537 17.5597 15H9.45263C12.7355 10.6567 17.2419 7.28837 22.4548 5.41125ZM7.0565 18.7375H16.4988C15.6505 22.2921 15.1497 26.1509 15.0295 30.125H3.81375C4.083 26.0366 5.22538 22.1709 7.0565 18.7375ZM7.0565 45.25C5.22538 41.8166 4.083 37.9634 3.81375 33.875H15.0295C15.1497 37.8491 15.6505 41.6954 16.4988 45.25H7.0565ZM9.45263 49H17.5596C18.6634 52.3454 20.2589 55.797 22.4548 58.5887C17.2419 56.7116 12.7355 53.3433 9.45263 49ZM30.125 59.9318C25.9386 58.5245 23.0522 53.15 21.5278 49H30.125V59.9318ZM30.125 45.25H20.3606C19.4494 41.7456 18.9094 37.8895 18.781 33.875H30.125V45.25ZM30.125 30.125H18.781C18.9095 26.1105 19.4495 22.2544 20.3606 18.75H30.125V30.125ZM30.125 15H21.5278C23.0521 10.8501 25.9386 5.4755 30.125 4.06825V15ZM56.9435 18.75C58.7747 22.1834 59.917 26.0366 60.1862 30.125H48.9705C48.8503 26.1509 48.3495 22.3046 47.5013 18.75H56.9435ZM54.5474 15H46.4404C45.3366 11.6546 43.7411 8.203 41.5452 5.41125C46.7581 7.28837 51.2645 10.6567 54.5474 15ZM33.875 4.06825C38.0614 5.4755 40.9478 10.85 42.4723 15H33.875V4.06825ZM33.875 18.75H43.6394C44.5506 22.2544 45.0906 26.1105 45.219 30.125H33.875V18.75ZM33.875 33.8625H45.219C45.0905 37.877 44.5505 41.7456 43.6394 45.25H33.875V33.8625ZM33.875 59.9318V48.9875H42.4723C40.9479 53.1374 38.0614 58.5245 33.875 59.9318ZM41.5452 58.5887C43.7407 55.7974 45.3363 52.3336 46.4404 48.9875H54.5474C51.2645 53.3307 46.7581 56.7116 41.5452 58.5887ZM56.9435 45.25H47.5013C48.3495 41.6954 48.8503 37.8366 48.9705 33.8625H60.1862C59.917 37.9509 58.7746 41.8166 56.9435 45.25Z" fill="#257DFF"/>
</svg>
