<svg width="58" height="11" viewBox="0 0 58 11" fill="none" xmlns="http://www.w3.org/2000/svg">
<g clip-path="url(#clip0_147_770)">
<path fill-rule="evenodd" clip-rule="evenodd" d="M5.77064 7.8986L3.51804 9.04802C3.25283 9.18335 2.94714 8.9572 2.99895 8.66401L3.42634 6.24547L1.62592 4.54213C1.40645 4.33449 1.52425 3.9652 1.82341 3.92301L4.32178 3.57066L5.44915 1.35355C5.58284 1.09063 5.95843 1.09063 6.09213 1.35355L7.2195 3.57066L9.71786 3.92301C10.017 3.9652 10.1348 4.33449 9.91536 4.54213L8.11494 6.24547L8.54233 8.66401C8.59414 8.9572 8.28845 9.18335 8.02324 9.04802L5.77064 7.8986Z" fill="#257DFF"/>
<path fill-rule="evenodd" clip-rule="evenodd" d="M16.5905 7.8986L14.3379 9.04802C14.0727 9.18335 13.767 8.9572 13.8188 8.66401L14.2462 6.24547L12.4457 4.54213C12.2263 4.33449 12.3441 3.9652 12.6432 3.92301L15.1416 3.57066L16.269 1.35355C16.4027 1.09063 16.7783 1.09063 16.912 1.35355L18.0393 3.57066L20.5377 3.92301C20.8369 3.9652 20.9547 4.33449 20.7352 4.54213L18.9348 6.24547L19.3622 8.66401C19.414 8.9572 19.1083 9.18335 18.8431 9.04802L16.5905 7.8986Z" fill="#257DFF"/>
<path fill-rule="evenodd" clip-rule="evenodd" d="M27.4103 7.8986L25.1577 9.04802C24.8925 9.18335 24.5868 8.9572 24.6386 8.66401L25.066 6.24547L23.2656 4.54213C23.0461 4.33449 23.1639 3.9652 23.4631 3.92301L25.9614 3.57066L27.0888 1.35355C27.2225 1.09063 27.5981 1.09063 27.7318 1.35355L28.8591 3.57066L31.3575 3.92301C31.6567 3.9652 31.7745 4.33449 31.555 4.54213L29.7546 6.24547L30.182 8.66401C30.2338 8.9572 29.9281 9.18335 29.6629 9.04802L27.4103 7.8986Z" fill="#257DFF"/>
<path fill-rule="evenodd" clip-rule="evenodd" d="M38.2302 7.8986L35.9776 9.04802C35.7124 9.18335 35.4067 8.9572 35.4585 8.66401L35.8859 6.24547L34.0855 4.54213C33.866 4.33449 33.9838 3.9652 34.283 3.92301L36.7814 3.57066L37.9087 1.35355C38.0424 1.09063 38.418 1.09063 38.5517 1.35355L39.6791 3.57066L42.1775 3.92301C42.4766 3.9652 42.5944 4.33449 42.375 4.54213L40.5745 6.24547L41.0019 8.66401C41.0537 8.9572 40.748 9.18335 40.4828 9.04802L38.2302 7.8986Z" fill="#257DFF"/>
<path fill-rule="evenodd" clip-rule="evenodd" d="M49.0501 7.8986L46.7975 9.04802C46.5322 9.18335 46.2266 8.9572 46.2784 8.66401L46.7058 6.24547L44.9053 4.54213C44.6859 4.33449 44.8037 3.9652 45.1028 3.92301L47.6012 3.57066L48.7286 1.35355C48.8623 1.09063 49.2379 1.09063 49.3715 1.35355L50.4989 3.57066L52.9973 3.92301C53.2964 3.9652 53.4142 4.33449 53.1948 4.54213L51.3944 6.24547L51.8217 8.66401C51.8736 8.9572 51.5679 9.18335 51.3027 9.04802L49.0501 7.8986Z" fill="#257DFF"/>
</g>
<defs>
<clipPath id="clip0_147_770">
<rect width="58" height="10.0985" fill="white"/>
</clipPath>
</defs>
</svg>
