<svg width="34" height="34" viewBox="0 0 34 34" fill="none" xmlns="http://www.w3.org/2000/svg">
<path d="M29.0512 21.4694L26.3483 19.5473C26.8023 17.8781 26.7997 16.1176 26.3408 14.4498L29.0527 12.5515L26.8877 8.80549L23.8718 10.1853C22.6528 8.95751 21.1265 8.0796 19.4523 7.64325L19.1648 4.34576H14.8347L14.5471 7.64325C12.8732 8.0802 11.3474 8.95863 10.1291 10.1868L7.11173 8.80698L4.94817 12.553L7.66007 14.4513C7.20101 16.1185 7.19792 17.8784 7.65112 19.5473L4.94817 21.4694L7.11173 25.1975L10.1291 23.8163C11.3476 25.0439 12.8734 25.9218 14.5471 26.3583L14.8347 29.6558H19.1648L19.4523 26.3583C21.126 25.9217 22.6518 25.0438 23.8703 23.8163L26.8877 25.1975L29.0527 21.4709L29.0512 21.4694ZM19.9873 2.83336C20.1791 2.83316 20.3635 2.90693 20.5023 3.03932C20.6411 3.17171 20.7235 3.35252 20.7323 3.54411L20.9975 6.57637C22.099 6.99613 23.1266 7.58864 24.0417 8.33165L26.7983 7.04574C26.9685 6.95814 27.166 6.93945 27.3497 6.99355C27.5333 7.04765 27.6891 7.17039 27.7847 7.3363L30.7723 12.5068C30.8683 12.6725 30.8967 12.8688 30.8518 13.055C30.8068 13.2412 30.6919 13.4029 30.5309 13.5066L28.0365 15.2529C28.2273 16.442 28.2213 17.6266 28.038 18.768L30.5309 20.5113C30.6923 20.615 30.8075 20.777 30.8525 20.9636C30.8974 21.1501 30.8687 21.3468 30.7723 21.5127L27.7847 26.6638C27.6891 26.8297 27.5333 26.9524 27.3497 27.0065C27.166 27.0606 26.9685 27.0419 26.7983 26.9543L24.0417 25.6684C23.1447 26.3985 22.1225 26.9946 20.9975 27.4252L20.7323 30.4574C20.7231 30.6488 20.6406 30.8292 20.5018 30.9613C20.3631 31.0934 20.1788 31.1669 19.9873 31.1667H14.0122C13.8206 31.1669 13.6363 31.0934 13.4976 30.9613C13.3589 30.8292 13.2763 30.6488 13.2671 30.4574L13.0019 27.4252C11.9004 27.0049 10.8728 26.4119 9.95773 25.6684L7.20113 26.9543C7.0309 27.0425 6.83323 27.0617 6.64923 27.0078C6.46523 26.954 6.30907 26.8313 6.21323 26.6653L3.22716 21.5112C3.13117 21.3454 3.10269 21.1491 3.14764 20.9629C3.19259 20.7767 3.30751 20.615 3.46855 20.5113L5.96141 18.7665C5.77473 17.6022 5.77473 16.4157 5.96141 15.2515L3.47004 13.5066C3.3094 13.4029 3.19475 13.2415 3.14982 13.0557C3.10489 12.8699 3.13311 12.6739 3.22865 12.5083L6.21174 7.3363C6.30734 7.17001 6.46339 7.04699 6.64741 6.99287C6.83143 6.93875 7.02923 6.95768 7.19964 7.04574L9.95624 8.33165C10.8713 7.58864 11.8989 6.99613 13.0004 6.57637L13.2656 3.54411C13.2745 3.35252 13.3568 3.17171 13.4956 3.03932C13.6344 2.90693 13.8189 2.83316 14.0107 2.83336H19.9858H19.9873ZM16.9997 11.796C18.3829 11.796 19.7094 12.3455 20.6874 13.3235C21.6654 14.3015 22.2149 15.6281 22.2149 17.0112C22.2149 18.3944 21.6654 19.7209 20.6874 20.6989C19.7094 21.6769 18.3829 22.2264 16.9997 22.2264C15.6166 22.2264 14.2901 21.6769 13.312 20.6989C12.334 19.7209 11.7845 18.3944 11.7845 17.0112C11.7845 15.6281 12.334 14.3015 13.312 13.3235C14.2901 12.3455 15.6166 11.796 16.9997 11.796ZM16.9997 13.2861C16.0117 13.2861 15.0642 13.6785 14.3656 14.3771C13.667 15.0757 13.2746 16.0232 13.2746 17.0112C13.2746 17.9992 13.667 18.9467 14.3656 19.6453C15.0642 20.3439 16.0117 20.7363 16.9997 20.7363C17.9877 20.7363 18.9352 20.3439 19.6338 19.6453C20.3324 18.9467 20.7248 17.9992 20.7248 17.0112C20.7248 16.0232 20.3324 15.0757 19.6338 14.3771C18.9352 13.6785 17.9877 13.2861 16.9997 13.2861Z" fill="white"/>
</svg>
